<svg xmlns="http://www.w3.org/2000/svg" width="13" height="14" viewBox="0 0 13 14">
    <path d="M1 13h11V5H1v8zm3-9.5c0-.78.02-1.57-.02-2.35-.2-.23-.64-.18-.9-.08-.15.34-.05.73-.08 1.1 0 .47-.02.95.02 1.43.2.23.64.18.9.08L4 3.6 4 3.5zm6 0c0-.78.02-1.57-.02-2.35-.2-.23-.64-.18-.9-.08-.15.34-.05.73-.08 1.1 0 .47-.02.95.02 1.43.2.23.64.18.9.08L10 3.6l.02-.1zm3-.5v10.1c-.05.62-.7 1-1.27.9H.9c-.62-.05-1-.7-.9-1.27V2.9c.05-.62.7-1 1.27-.9H2c0-.6-.1-1.3.46-1.72.46-.38 1.1-.3 1.66-.23.65.18.96.88.88 1.5 0 .24-.08.56.27.45H8c0-.6-.1-1.3.46-1.72.46-.38 1.1-.3 1.66-.23.65.18.96.88.88 1.5 0 .24-.08.56.27.45.52.02 1.14-.1 1.5.37.15.18.23.4.23.63z" fill="#444"/>
</svg>
