<svg xmlns="http://www.w3.org/2000/svg" width="14" height="14" viewBox="0 0 14 14">
    <path d="M11 6c0 1.6-1.27 2.85-2.66 3.43-1.32.58-2.8.7-4.2.45-.86.6-1.85 1-2.88 1.12-.57-.17-.03-.7.2-.9.32-.4.96-1.04.16-1.26C.48 8.04-.3 6.6.1 5.2c.48-1.65 2.1-2.64 3.7-3 2.08-.47 4.46-.1 6.07 1.36C10.54 4.2 11 5.06 11 6zm3 2c.02 1.35-.95 2.5-2.08 3.13.2.6.7 1 1.06 1.5.05.63-.8.26-1.16.18-.7-.2-1.36-.5-1.95-.92-1.7.3-3.58.07-5.06-.9 2.27.18 4.74-.53 6.22-2.32.88-1.05 1.22-2.54.8-3.85C13 5.45 14.02 6.63 14 8z" fill="#444"/>
</svg>
