<svg xmlns="http://www.w3.org/2000/svg" width="14" height="14" viewBox="0 0 14 14">
    <path d="M5.5 3c-1.55 0-3.25.53-4.15 1.86-.58.82-.4 1.97.3 2.66.45.53 1.1.83 1.7 1.18l-.3.66c.32-.15.58-.4.88-.54 1.8.4 3.9.15 5.3-1.16.74-.66 1.03-1.84.48-2.7C8.85 3.55 7.08 3 5.5 3zm0-1c1.84 0 3.84.66 4.94 2.23.85 1.15.7 2.85-.27 3.9-1.33 1.5-3.5 2.02-5.44 1.83-.53-.22-.92.12-1.36.38-.7.33-1.43.63-2.2.64-.46-.32.2-.7.38-.97.3-.38.82-.97.07-1.16C.48 8.04-.3 6.6.1 5.2c.48-1.65 2.1-2.64 3.7-3 .56-.14 1.13-.2 1.7-.2zm6.42 9.13c.2.6.7 1 1.06 1.5.05.63-.8.26-1.16.18-.7-.2-1.36-.5-1.95-.92-1.7.3-3.58.07-5.06-.9 2.27.18 4.74-.53 6.22-2.32.88-1.05 1.22-2.54.8-3.85 1.27.68 2.36 2.04 2.16 3.55-.13 1.2-1.04 2.2-2.06 2.78z" fill="#444"/>
</svg>
