<svg xmlns="http://www.w3.org/2000/svg" width="14" height="14" viewBox="0 0 14 14">
    <path d="M4.73 9.63c.75 0 1.77-.28 2.06-1.02-.15-.26-.28-.54-.46-.8-.64.08-1.3.92-2.1.48-1.07-.4-1.1-2.15 0-2.56.65-.32 1.26.12 1.8.42.3-.12.4-.48.6-.72.05-.66-.95-.9-1.5-1.03-1.3-.25-2.74.6-3.03 1.93-.32 1.24.33 2.67 1.56 3.1.34.15.7.2 1.07.2zm4.92 0c.75 0 1.76-.28 2.06-1.02-.13-.26-.25-.55-.44-.8-.64.1-1.3.9-2.1.48-1.07-.4-1.1-2.15 0-2.56.65-.32 1.26.12 1.8.42.3-.12.4-.48.6-.72.06-.66-.95-.9-1.5-1.03-1.34-.26-2.83.67-3.05 2.06-.27 1.25.45 2.65 1.7 3.03.3.1.63.13.95.13zM7 1.25c-2.46-.03-4.8 1.7-5.5 4.05-.83 2.53.4 5.52 2.75 6.74 2.12 1.22 4.98.82 6.72-.88 1.8-1.7 2.32-4.6 1.14-6.78-.93-1.9-3-3.15-5.1-3.13zM7 0c2.72-.03 5.36 1.68 6.4 4.2 1.1 2.36.65 5.28-1 7.26-1.78 2.2-4.96 3.12-7.63 2.17-2.02-.66-3.7-2.3-4.37-4.32-.98-2.65-.1-5.84 2.07-7.64C3.73.6 5.37 0 7 0z" fill="#444"/>
</svg>
