<svg xmlns="http://www.w3.org/2000/svg" width="14" height="14" viewBox="0 0 14 14">
    <path d="M14 5.55v6.33c-.05.7-.78 1.2-1.46 1.12H1.12c-.7-.05-1.2-.78-1.12-1.46v-6c.73.77 1.7 1.25 2.52 1.87 1.06.7 2.05 1.5 3.1 2.17.68.4 1.52.6 2.25.24C8.9 9.4 9.7 8.6 10.6 8c1-.7 2.06-1.35 3.04-2.1.12-.1.25-.23.36-.35zm0-2.3c0 1.1-.92 1.9-1.78 2.45-1.42.98-2.83 1.98-4.26 2.95-.56.45-1.36.45-1.92 0-1.6-1.1-3.2-2.23-4.82-3.34C.58 4.8-.12 4.04.02 3.14.07 2.45.7 1.9 1.4 2h11.47c.62.06 1.15.63 1.13 1.25z" fill="#444"/>
</svg>
