<svg xmlns="http://www.w3.org/2000/svg" width="14" height="14" viewBox="0 0 14 14">
    <path d="M8 10.74c0-.53.02-1.06-.02-1.58-.2-.28-.6-.12-.88-.16-.34.03-.72-.08-1.03.07-.14.33-.04.72-.07 1.07.04.28-.1.65.16.84.52.04 1.06 0 1.6.02.13 0 .25-.12.24-.26zm-.02-2.92l.14-3.6c-.1-.35-.55-.18-.83-.22-.42 0-.84-.03-1.25.02-.3.17-.12.56-.15.84.05 1 .05 2.03.13 3.03.27.2.65.06.97.1.32-.04.7.1.96-.1L8 7.8h-.02zm-.1-7.3c2 3.7 4.05 7.4 6.05 11.13.32.7-.4 1.48-1.12 1.35H.88C.13 12.9-.27 11.96.2 11.4L6.12.5c.34-.7 1.42-.7 1.75 0z" fill="#444"/>
</svg>
