<svg xmlns="http://www.w3.org/2000/svg" width="14" height="14" viewBox="0 0 14 14">
    <path d="M4.34 10.43l.6-1.1c-1.42-1-1.88-3.1-.96-4.6C2.75 5.37 1.74 6.36 1 7.5c.8 1.26 1.96 2.32 3.34 2.93zM7.38 4.5c-.17-.7-1.17-.27-1.6-.04-.72.44-1.26 1.3-1.13 2.18.36.6.9-.07.77-.54.18-.73.9-1.27 1.66-1.23.17-.03.3-.2.3-.37zM10.2 3c-.4.85-.9 1.66-1.34 2.5L4.9 12.62c-.44.24-1.14-.3-1.4-.65.14-.4.56-.76-.07-.88C2.05 10.37.9 9.24.1 7.9c-.3-.54.1-1.08.44-1.5C2.04 4.4 4.44 2.96 7 3c.47-.08 1.08.2 1.46.04.15-.25.26-.54.46-.76.43 0 1.06.38 1.3.73zm.3 3.5c.02 1.42-.92 2.78-2.25 3.27l2.2-3.93c.03.22.05.44.05.66zm3.5 1c-.05.64-.58 1.1-.94 1.6C11.58 10.85 9.33 12.02 7 12l.58-1.03C9.82 10.8 11.8 9.37 13 7.5c-.58-.9-1.32-1.7-2.2-2.3.16-.3.32-.58.5-.87 1.05.74 2.03 1.67 2.64 2.83.04.1.06.23.06.34z" fill="#444"/>
</svg>
