<svg xmlns="http://www.w3.org/2000/svg" width="14" height="14" viewBox="0 0 14 14">
    <path d="M13 7.5c-.74-1.15-1.75-2.14-2.98-2.76.84 1.38.55 3.3-.68 4.36-1.3 1.25-3.58 1.2-4.8-.13-1.14-1.06-1.36-2.9-.56-4.23C2.75 5.36 1.74 6.34 1 7.5c1.3 2.02 3.55 3.54 6 3.5 2.46.04 4.7-1.48 6-3.5zm-5.63-3c-.16-.7-1.16-.27-1.58-.04-.74.44-1.28 1.3-1.15 2.18.36.6.9-.07.77-.54.18-.73.9-1.27 1.66-1.23.17-.03.3-.2.3-.37zm6.63 3c-.06.68-.62 1.17-1 1.7-1.76 2.03-4.58 3.18-7.26 2.7-2.34-.42-4.48-1.93-5.65-4-.3-.63.23-1.2.57-1.7C2.4 3.98 5.32 2.63 8.14 3.1c2.4.37 4.58 1.9 5.77 4 .07.12.1.26.1.4z" fill="#444"/>
</svg>
