<svg xmlns="http://www.w3.org/2000/svg" width="12" height="14" viewBox="0 0 12 14">
    <path d="M12 7c.05 2.52-1.7 4.94-4.1 5.7-.46.1-.42-.43-.4-.73-.04-.62.07-1.26-.1-1.87-.08-.28-.52-.53 0-.5 1-.1 2.02-.7 2.27-1.74.26-.92.26-2.05-.46-2.78.18-.48.3-1.54-.32-1.6-.5.1-.96.34-1.38.62-.98-.27-2.03-.27-3 0-.5-.3-1.05-.67-1.66-.62-.37.55 0 1.3-.2 1.77-.67.87-.56 2.12-.13 3.07.45.9 1.48 1.25 2.4 1.33-.37.4-.32 1.1-1.05.96-.6.1-.96-.45-1.24-.87-.14-.28-1.07-.64-.94-.16.36.26.68.58.82 1 .24.73 1.1.83 1.75.76.57-.2.15.77.28 1.08-.28.72-1.2-.1-1.67-.3C.95 10.96-.2 8.7.03 6.5.17 3.93 2.2 1.64 4.7 1.13c2.07-.46 4.34.25 5.75 1.83 1 1.1 1.57 2.56 1.55 4.04z" fill="#444"/>
</svg>
