<svg xmlns="http://www.w3.org/2000/svg" width="12" height="14" viewBox="0 0 12 14">
    <path d="M11.8 8.25c-.48 2.46-2.65 4.52-5.18 4.72-1.72.2-3.5-.42-4.76-1.63-.4.37-.74.8-1.17 1.12-.5.2-.8-.35-.7-.77V8.4c.1-.45.6-.4.94-.4H4.1c.55.13.46.8.06 1.04l-.88.88c1.3 1.27 3.52 1.44 5 .37.75-.5 1.24-1.3 1.54-2.12.13-.3.5-.14.74-.18.37 0 .73-.02 1.1.02.08.04.15.13.15.23zM12 2v3.6c-.1.45-.6.4-.94.4H7.9c-.55-.13-.46-.8-.06-1.04l.9-.9C7.3 2.7 4.88 2.67 3.4 3.95c-.64.5-1 1.23-1.28 1.96-.2.2-.54.07-.8.1-.35 0-.7.02-1.05-.02C-.1 5.4.6 4.6.8 4 1.82 2.15 3.92.93 6.06 1c1.5 0 2.98.63 4.06 1.66.4-.37.75-.8 1.18-1.12.32-.14.7.12.7.46z" fill="#444"/>
</svg>
