<svg xmlns="http://www.w3.org/2000/svg" width="15" height="14" viewBox="0 0 15 14">
    <path d="M3.5 3.5c.05-.8-1.03-1.32-1.63-.78-.66.48-.37 1.64.43 1.76.6.14 1.22-.36 1.2-.98zM11.84 8c0 .62-.6.95-.96 1.37-1.1 1.08-2.16 2.18-3.25 3.24-.45.4-1.15.25-1.5-.2C4.3 10.5 2.42 8.66.58 6.8c-.5-.6-.6-1.4-.57-2.16 0-.94-.02-1.9.02-2.84.1-.57.7-.88 1.25-.8C2.33 1 3.4.98 4.47 1c.77.1 1.4.57 1.92 1.14 1.73 1.74 3.48 3.47 5.2 5.23.16.17.24.4.24.63zm3 0c0 .62-.6.95-.96 1.37-1.1 1.08-2.16 2.18-3.25 3.24-.4.45-1.47.2-1.42-.3 1.22-1.23 2.45-2.44 3.66-3.67.4-.47.2-1.18-.25-1.53-1.82-1.82-3.64-3.65-5.47-5.46-.36-.4-1.3-.64-1.55-.64.74.03 1.5-.07 2.22.08.94.2 1.5 1 2.15 1.62 1.56 1.56 3.12 3.1 4.66 4.67.16.17.24.4.24.63z" fill="#444"/>
</svg>
