<svg xmlns="http://www.w3.org/2000/svg" width="11" height="14" viewBox="0 0 11 14">
    <path d="M4 5.75v4.5c-.04.37-.48.22-.74.25-.37-.02-.23-.46-.26-.7V5.74c.04-.37.48-.22.74-.25.14 0 .27.1.26.25zm2 0v4.5c-.04.37-.48.22-.74.25-.37-.02-.23-.46-.26-.7V5.74c.04-.37.48-.22.74-.25.14 0 .27.1.26.25zm2 0v4.5c-.04.37-.48.22-.74.25-.37-.02-.23-.46-.26-.7V5.74c.04-.37.48-.22.74-.25.14 0 .27.1.26.25zm1 5.66V4H2v7.5c0 .37.3.58.64.5h6.1c.2-.13.25-.38.26-.6zM3.75 3h3.5l-.38-.9c-.2-.18-.5-.07-.75-.1H4.26c-.23.12-.24.44-.37.66L3.74 3zm7.25.25c-.03.25.1.58-.15.73-.28.04-.57 0-.85.02v7.57c-.04.72-.6 1.53-1.4 1.43H2.1c-.8-.13-1.2-1.02-1.12-1.76V4c-.28 0-.57.02-.85-.02C-.1 3.83.03 3.5 0 3.25c.04-.37.48-.22.74-.25h1.92c.23-.5.4-1.03.67-1.5.28-.43.8-.54 1.28-.5.77 0 1.54-.02 2.3 0 .52.1.87.52 1 1 .16.33.3.67.44 1h2.4c.15 0 .27.1.26.25z" fill="#444"/>
</svg>
