<?xml version="1.0" standalone="no"?>
<!DOCTYPE svg PUBLIC "-//W3C//DTD SVG 1.1//EN" "http://www.w3.org/Graphics/SVG/1.1/DTD/svg11.dtd" >
<svg xmlns="http://www.w3.org/2000/svg">
<metadata></metadata>
<defs>
<font id="karmabold" horiz-adv-x="1354" >
<font-face units-per-em="2048" ascent="1638" descent="-410" />
<missing-glyph horiz-adv-x="526" />
<glyph horiz-adv-x="0" />
<glyph horiz-adv-x="682" />
<glyph horiz-adv-x="0" />
<glyph horiz-adv-x="0" />
<glyph unicode="&#xd;" horiz-adv-x="653" />
<glyph unicode=" "  horiz-adv-x="526" />
<glyph unicode="&#x09;" horiz-adv-x="526" />
<glyph unicode="&#xa0;" horiz-adv-x="526" />
<glyph unicode="!" horiz-adv-x="467" d="M79 125.5q0 65.5 45 110.5t110 45t110.5 -45t45.5 -110.5t-45.5 -110.5t-110.5 -45t-110 45t-45 110.5zM116 1375q112 41 259 13l-60 -957q-77 -22 -161 0z" />
<glyph unicode="&#x22;" horiz-adv-x="720" d="M107 1355q106 37 235 13l-59 -436q-62 -17 -131 0zM396 1355q106 37 235 13l-59 -436q-62 -17 -131 0z" />
<glyph unicode="#" horiz-adv-x="1373" d="M79 533h244l69 320h-165q-59 57 -66 158h261l68 314h180l-66 -314h265l67 314h180l-66 -314h181q58 -57 65 -158h-277l-70 -320h199q59 -57 65 -158h-295l-72 -341h-182l73 341h-265l-73 -341h-181l73 341h-147q-59 57 -65 158zM503 533h266l68 320h-265z" />
<glyph unicode="$" horiz-adv-x="986" d="M88 197q0 71 45.5 113t140.5 42q0 -127 51.5 -181.5t166.5 -54.5q210 0 210 154q0 98 -66 156t-151.5 94.5t-111 48t-74.5 37t-72 48.5t-50 54q-51 60 -51 159q0 141 76.5 230t202.5 122l-20 212q26 16 87 16t91 -16l-19 -195q118 0 213 -51.5t95 -167.5 q0 -69 -45.5 -109.5t-118.5 -29.5q0 113 -47.5 167t-138.5 54t-137 -42t-46 -96.5t14.5 -84.5t58.5 -58q58 -39 212.5 -108t224.5 -139t70 -213.5t-96.5 -250.5t-260.5 -131l21 -203q-30 -15 -91 -15t-87 15l18 199q-129 12 -222 68t-93 157z" />
<glyph unicode="%" horiz-adv-x="1589" d="M88 887.5q0 176.5 74 264.5t211 88q276 0 276 -345q0 -179 -73 -268.5t-207.5 -89.5t-207.5 87t-73 263.5zM252 889q0 -238 116 -238q112 0 112 238t-110 238q-118 0 -118 -238zM348 0l700 1238h207l-700 -1238h-207zM942 321.5q0 175.5 74 264t211 88.5q275 0 275 -346 q0 -178 -73 -268t-207 -90t-207 88t-73 263.5zM1105 322.5q0 -238.5 116 -238.5q112 0 112 238.5t-110 238.5q-118 0 -118 -238.5z" />
<glyph unicode="&#x26;" horiz-adv-x="1462" d="M69 306q0 234 242 366q-144 191 -144 328t99.5 232t260.5 95t250.5 -75.5t89.5 -207.5t-81.5 -226t-203.5 -137l11 -15q160 -191 331 -330q51 79 83 187l-131 10q-11 126 83 126h339v-18q0 -104 -75 -110l-65 -4q-43 -159 -118 -275q138 -89 228 -89q40 0 83 16t58 39 q28 -24 28 -84.5t-49 -114t-148 -53.5q-148 0 -340 130q-165 -132 -387 -132t-333 96t-111 246zM295.5 363q-0.5 -115 70.5 -174t193 -58.5t218 60.5q-160 130 -383 381q-98 -94 -98.5 -209zM387 1046q0 -108 127 -277q146 88 145 273q0 87 -37.5 127.5t-92.5 40.5 t-98.5 -46t-43.5 -118z" />
<glyph unicode="'" horiz-adv-x="432" d="M98 1355q106 37 236 13l-58 -436q-63 -17 -132 0z" />
<glyph unicode="(" horiz-adv-x="604" d="M98 548.5q0 255.5 100.5 509t263.5 397.5l80 -80q-99 -158 -160 -389t-61 -443.5t62.5 -437.5t162.5 -368l-84 -89q-163 146 -263.5 395.5t-100.5 505z" />
<glyph unicode=")" horiz-adv-x="604" d="M59 -263q99 144 162.5 368.5t63.5 437t-61 443.5t-161 389l81 80q163 -144 263 -397.5t100 -509t-100.5 -505t-262.5 -395.5z" />
<glyph unicode="*" horiz-adv-x="927" d="M79 1048q0 51 18.5 123.5t43.5 102.5l274 -152l-69 309q39 16 114 14t116 -16l-60 -305l270 148q24 -32 44 -105.5t20 -118.5l-315 -16l234 -204q-24 -38 -87 -82t-106 -54l-112 278l-110 -274q-43 10 -107.5 54t-83.5 79l231 203z" />
<glyph unicode="+" horiz-adv-x="998" d="M98 446v158h322v322h164v-322h316v-158h-316v-322h-164v322h-322z" />
<glyph unicode="," horiz-adv-x="503" d="M98 128q0 65 41 107t111.5 42t112.5 -43t42 -133.5t-77.5 -207.5t-162.5 -152q-11 -8 -34.5 12t-23.5 35q86 60 123 184q-60 8 -96 49.5t-36 106.5z" />
<glyph unicode="-" horiz-adv-x="795" d="M79 437v176h639v-176h-639z" />
<glyph unicode="." horiz-adv-x="506" d="M98 125.5q0 65.5 45.5 110.5t110.5 45t110 -45t45 -110.5t-45 -110.5t-110 -45t-110.5 45t-45.5 110.5z" />
<glyph unicode="/" horiz-adv-x="737" d="M39 -177l464 1547h195l-464 -1547h-195z" />
<glyph unicode="0" horiz-adv-x="1060" d="M69 597q0 298 120.5 466t349.5 175q454 16 454 -630q0 -311 -116 -474.5t-342 -163.5t-346 164.5t-120 462.5zM297 584q0 -248 61 -353t183.5 -105t173 111t50.5 359t-53 366.5t-170 118.5q-245 0 -245 -497z" />
<glyph unicode="1" horiz-adv-x="801" d="M59 1042l307 173q41 24 98 23q78 0 78 -101v-993l199 -12q6 -12 -2 -55q-17 -77 -86 -77h-553v15q0 83 46 111q17 9 41 9l119 4v834l-115 -35q-53 -17 -93.5 29t-38.5 75z" />
<glyph unicode="2" horiz-adv-x="1021" d="M75 126q8 6 64 56t74.5 65.5t73.5 67t79 77t70 76.5t68.5 84.5t55.5 82.5t50 89q37 102 37 180.5t-42 131t-137.5 52.5t-135 -78t-39.5 -214q-75 -6 -134 29.5t-59 123.5q0 122 116 205.5t294 83.5t282.5 -96t104.5 -249q0 -90 -41.5 -187.5t-98.5 -173.5t-136 -155 q-120 -116 -246 -208h441l12 110q5 53 44.5 71t84.5 6v-354h-857q-32 92 -25 124z" />
<glyph unicode="3" horiz-adv-x="925" d="M69 180q0 59 38.5 100t108.5 41q0 -89 54 -143t149 -54t157.5 54t60.5 152q-1 126 -107 171t-260 34l-2 171q131 0 231 78q81 65 81 177q0 135 -128 136q-86 0 -126.5 -56t-44.5 -133q-159 0 -159 124q0 90 91 148t249.5 58t258 -73t99.5 -204q0 -218 -261 -302 q149 -16 238.5 -98.5t89.5 -210.5q0 -157 -133 -268.5t-351 -111.5q-159 0 -246.5 60t-87.5 150z" />
<glyph unicode="4" horiz-adv-x="978" d="M30 364l570 857q96 24 175 15v-849h174v-157h-174v-230l-236 -19v249h-453q-45 59 -56 134zM216 387h323v491z" />
<glyph unicode="5" horiz-adv-x="927" d="M79 179q0 56 35.5 90.5t89.5 34.5q30 -189 203 -188q105 0 169.5 67t64.5 175t-65 158t-151.5 50t-212.5 -35l-27 13l27 675h591l-21 -187h-432l-12 -285q75 14 140 14q171 0 285.5 -88.5t114.5 -277.5t-135 -307t-340 -118q-144 0 -234 57t-90 152z" />
<glyph unicode="6" horiz-adv-x="962" d="M69 533q0 338 142.5 521.5t386.5 183.5q124 0 192.5 -45t68.5 -103t-34.5 -97.5t-113.5 -33.5q0 139 -137 140q-229 0 -253 -439q123 72 262 72t237 -91t98 -265.5t-116 -290t-314 -115.5q-419 0 -419 563zM317 529q2 -232 50 -322.5t142 -90.5q171 0 171.5 229 t-200.5 229q-88 0 -163 -45z" />
<glyph unicode="7" horiz-adv-x="827" d="M59 878v341h723q26 -49 26 -120l-484 -1133l-230 79l506 972h-403l-10 -83q-4 -37 -58 -53t-70 -3z" />
<glyph unicode="8" horiz-adv-x="938" d="M59 285q0 199 211 328q-150 115 -150 267t100.5 255t271 103t259 -74t88.5 -198q0 -177 -182 -300q101 -60 162.5 -131.5t61.5 -176.5q0 -148 -115 -268t-298 -120t-296 85.5t-113 229.5zM291 300q0 -88 47 -140t138.5 -52t139.5 45.5t48 114.5q0 122 -180 220 q-6 4 -92 49q-100 -98 -101 -237zM340 962.5q0 -67.5 41 -116t156 -113.5l3 -1q87 86 87 206q0 86 -41.5 124.5t-100.5 38.5t-102 -35.5t-43 -103z" />
<glyph unicode="9" horiz-adv-x="936" d="M19 833q0 174 116.5 289.5t324.5 115.5q409 0 409 -574q0 -330 -143.5 -512t-393.5 -182q-116 0 -184.5 45t-68.5 118q0 44 35.5 83t112.5 34q0 -140 135 -140q232 0 255 438q-124 -71 -262.5 -70.5t-237 91t-98.5 264.5zM257.5 864.5q-0.5 -228.5 194.5 -228.5 q94 0 169 45q-2 232 -49 322t-141 90q-173 0 -173.5 -228.5z" />
<glyph unicode=":" horiz-adv-x="522" d="M98 132q0 69 47.5 116t116 47t115.5 -47t47 -116t-47 -116.5t-115.5 -47.5t-116 47.5t-47.5 116.5zM98 785.5q0 67.5 47.5 115.5t116 48t115.5 -47t47 -115.5t-47 -116t-115.5 -47.5t-116 47.5t-47.5 115z" />
<glyph unicode=";" horiz-adv-x="508" d="M98 837.5q0 64.5 45.5 110t110.5 45.5t110 -45.5t45 -110t-45 -109.5t-110 -45t-110.5 45t-45.5 109.5zM105 91q0 65 41 107t110.5 42t112 -43t42.5 -134t-78 -207.5t-162 -152.5q-12 -7 -35.5 13.5t-23.5 33.5q87 61 124 185q-60 7 -95.5 49t-35.5 107z" />
<glyph unicode="&#x3c;" horiz-adv-x="994" d="M59 490v106l747 385l83 -153l-561 -288l550 -275l-80 -155z" />
<glyph unicode="=" horiz-adv-x="998" d="M98 293v157h802v-157h-802zM98 604v157h802v-157h-802z" />
<glyph unicode="&#x3e;" horiz-adv-x="994" d="M107 828l82 153l747 -385v-106l-739 -380l-81 155l550 275z" />
<glyph unicode="?" horiz-adv-x="988" d="M79 1131q0 102 107 188t302 86t308.5 -95t113.5 -255t-119 -279t-301 -151l-12 -199q-55 -13 -157 0l-12 311q137 34 237 98q114 73 114 211q0 89 -48 150t-133 61t-141 -54q-90 -87 -90 -203q-71 0 -120 33t-49 98zM244 125.5q0 65.5 45 110.5t110 45t110.5 -45 t45.5 -110.5t-45.5 -110.5t-110.5 -45t-110 45t-45 110.5z" />
<glyph unicode="@" horiz-adv-x="2043" d="M167 497.5q0 375.5 249.5 611.5t660.5 236q360 0 580.5 -174.5t220.5 -453t-162.5 -445.5t-428.5 -167q-84 0 -125.5 19.5t-48.5 68.5q-115 -88 -257.5 -88t-229 92t-62.5 301.5t139 340.5t317 131q105 0 190 -42v2l239 14l-98 -700q171 0 276 120t105 317 q0 238 -179.5 382t-473.5 144q-342 0 -550 -197.5t-208 -512.5t212 -500.5t559 -185.5q275 0 433 105l24 -124q-219 -118 -485 -118q-404 0 -650.5 224t-246.5 599.5zM808.5 545.5q-41.5 -280.5 142.5 -280.5q79 0 176 75l59 423q-68 63 -154 63q-182 0 -223.5 -280.5z" />
<glyph unicode="A" horiz-adv-x="1296" d="M26 0v15q0 109 86 117l73 3l378 1212q42 4 91.5 4t106.5 -4l370 -1208l137 -11q3 -5 3 -16q0 -14 -5 -37q-17 -75 -86 -75h-460v15q0 109 86 117l57 3h2l-79 285h-353l-83 -281l159 -11q6 -12 -2 -53q-17 -75 -87 -75h-394zM469 552h282l-136 498z" />
<glyph unicode="B" horiz-adv-x="1163" d="M81 1221q-1 10 -1 20q0 39 20 69q24 38 57 37h447q240 0 349 -92.5t109 -222.5q0 -240 -246 -324q137 -20 220.5 -94t83.5 -203q0 -193 -129.5 -302t-377.5 -109h-530q1 122 78 130l63 7v1073zM469 141l95 -2h5q300 0 300 244q0 250 -326 250h-8h-66v-492zM469 751h42 q157 0 226 62.5t69 186.5t-71 178q-62 48 -157 48q-14 0 -28 -1l-74 -4h-7v-470z" />
<glyph unicode="C" horiz-adv-x="1182" d="M69 656.5q0 326.5 168 523.5t491 197q171 0 278 -76t107 -183q0 -78 -53 -121.5t-144 -43.5q0 254 -212 254q-181 0 -280.5 -146.5t-99.5 -397t96.5 -384t305 -133.5t367.5 119q32 -19 31 -62q0 -81 -139 -157t-328 -76q-291 0 -439.5 180t-148.5 506.5z" />
<glyph unicode="D" horiz-adv-x="1399" d="M81 0q-2 13 -2 25q1 33 13 61q16 40 58 44l70 7v1070h-2l-137 12v11q-1 60 19 88q22 30 82 29h461q688 0 688 -664q0 -333 -179 -508t-499 -175h-572zM466 144l127 -9q27 -2 52 -2q215 1 317 115q114 128 114 424q-2 296 -118 422q-109 118 -347 119q-17 0 -35 -1 l-110 -5v-1063z" />
<glyph unicode="E" horiz-adv-x="1126" d="M79 0q0 126 86 132l57 3v1072l-141 12q-3 5 -3 16q0 14 5 37q17 75 86 75h861v-297q0 -78 -100 -78q-12 0 -26 1l-17 232l-419 7v-488l352 41q12 -49 12 -100q0 -47 -10 -95l-354 19v-450l458 17l16 241q15 1 28 1q98 0 98 -77v-321h-989z" />
<glyph unicode="F" horiz-adv-x="1039" d="M79 0v15q0 109 86 117l57 3v1072l-141 12q-3 5 -3 16q0 14 5 37q17 75 86 75h842v-297q0 -78 -100 -78q-12 0 -26 1l-18 224l-399 15v-477l352 42q12 -49 12 -100q0 -47 -10 -95l-354 20v-463l181 -11q1 -13 1 -24q0 -104 -89 -104h-482z" />
<glyph unicode="G" horiz-adv-x="1344" d="M69 656.5q0 326.5 168 523.5t487 197q224 0 344 -74t120 -185q0 -78 -53.5 -121.5t-143.5 -43.5q0 148 -64 215t-227 67q-376 0 -376 -552q0 -272 96 -404.5t310 -132.5q165 0 238 76v260l-280 11q-1 13 -1 24q0 104 90 104h536v-15q0 -109 -86 -116l-57 -4h-12v-306 q-51 -94 -190.5 -152t-314.5 -58q-287 0 -435.5 180t-148.5 506.5z" />
<glyph unicode="H" horiz-adv-x="1505" d="M79 0v15q0 109 86 117l57 3v1072l-141 12q-3 5 -3 16q0 14 5 37q17 75 86 75h443v-16q0 -109 -87 -116l-57 -3v-480h570v475l-141 12q-1 14 -1 26q0 102 89 102h443v-16q0 -109 -87 -116l-57 -3v-1073l142 -11q2 -5 2 -15q0 -14 -4 -38q-18 -75 -87 -75h-442v15 q0 109 86 117l57 3v465h-570v-461l142 -11q1 -13 1 -24q0 -104 -90 -104h-442z" />
<glyph unicode="I" horiz-adv-x="689" d="M79 0v15q0 109 86 117l57 3v1072h-2l-139 12q-3 5 -3 16q0 14 5 37q17 75 86 75h443v-16q0 -109 -87 -116l-57 -3v-1073h1l141 -11q1 -13 1 -24q0 -104 -90 -104h-442z" />
<glyph unicode="J" horiz-adv-x="805" d="M45 39q0 158 167 158q0 -156 99 -156q36 0 53 46t17 172v948h-2l-143 12q-1 13 -1 24q0 104 89 104h447v-16q0 -109 -87 -116l-57 -3v-938q0 -175 -101.5 -286.5t-272.5 -111.5q-94 0 -151 48t-57 115z" />
<glyph unicode="K" horiz-adv-x="1259" d="M79 0v15q0 109 86 117l57 3v1072l-141 12q-3 5 -3 16q0 14 5 37q17 75 86 75h443v-16q0 -109 -87 -116l-57 -3v-528l403 528l-128 7q-1 13 -1 24q0 104 89 104h386q0 -132 -84 -132l-79 -3l-368 -463l425 -610l124 -11q6 -10 6 -23q1 -22 -15 -54q-24 -51 -80 -51h-238 l-381 548l-59 -72v-337l161 -11q1 -13 1 -24q0 -104 -90 -104h-461z" />
<glyph unicode="L" horiz-adv-x="1098" d="M79 0v15q0 109 86 117l57 3v1072l-138 12q-5 12 2 53q18 75 87 75h482v-18q0 -77 -45 -104q-18 -10 -42 -10l-96 -3h-4v-1073l425 15l31 270q15 1 28 1q98 0 98 -77v-348h-971z" />
<glyph unicode="M" horiz-adv-x="1749" d="M19 0v15q0 109 88 117l78 3l70 1072l-135 12q-6 12 2 53q17 75 86 75h336l347 -783l302 783h360q34 0 55.5 -17t27.5 -41q8 -40 8 -58q0 -8 -2 -12l-138 -12l81 -1068l143 -11q3 -5 3 -16q0 -14 -5 -37q-17 -75 -86 -75h-447v15q0 109 87 117l55 3l-71 955l-352 -878 q-45 -14 -83 -14q-23 0 -43 5l-379 849l-57 -913l159 -11q6 -12 -2 -53q-17 -75 -87 -75h-401z" />
<glyph unicode="N" horiz-adv-x="1364" d="M79 0v15q0 109 86 117l57 3v1072l-141 12q-3 5 -3 16q0 14 5 37q17 75 86 75h257l614 -914v774l-140 12q-1 13 -1 24q0 104 90 104h342v-16q0 -109 -87 -116l-56 -3v-1186q-59 -28 -152 -28l-666 997v-856l141 -11q1 -13 1 -24q0 -104 -90 -104h-343z" />
<glyph unicode="O" d="M69 665q0 331 169 521.5t456 190.5t439 -182t152 -513.5t-169.5 -521.5t-456.5 -190t-438.5 182t-151.5 513zM324 683q0 -270 87.5 -411.5t256.5 -143.5q179 2 270.5 138.5t91.5 404t-89 408t-264 140.5q-353 0 -353 -536z" />
<glyph unicode="P" horiz-adv-x="1161" d="M79 0v15q0 109 86 117l57 3v1077l-143 11v9q-1 44 17 78q20 38 60 37h459q240 0 373.5 -101.5t133.5 -281.5q0 -218 -148.5 -340.5t-416.5 -122.5h-89v-362l168 -11q5 -12 -3 -53q-18 -75 -87 -75h-467zM468 623h63q157 0 246.5 86.5t89.5 230.5q-1 145 -71 218 q-67 69 -185 69h-13l-130 -4v-600z" />
<glyph unicode="Q" d="M69 659q0 337 169 527.5t456 190.5t439 -182t152 -492.5t-131.5 -494.5t-371.5 -225q252 -90 382 -90q50 0 100 32q16 -19 16 -71.5t-50 -91.5t-125 -39t-204.5 53t-204.5 94.5t-204 116.5q-203 49 -313 222.5t-110 449.5zM324 683q0 -270 87.5 -411.5t256.5 -143.5 q179 2 270.5 138.5t91.5 404t-89 408t-264 140.5q-353 0 -353 -536z" />
<glyph unicode="R" horiz-adv-x="1236" d="M79 0v15q0 109 86 117l57 3v1077l-143 11v9q-1 44 17 78q20 38 60 37h452q487 0 487 -351q0 -147 -87.5 -248t-256.5 -138q112 -220 239.5 -343t247.5 -123q-9 -75 -61.5 -124.5t-130.5 -49.5q-131 0 -275 198t-225 421h-78v-450l165 -11q1 -13 1 -24q0 -104 -90 -104 h-465zM468 713q15 -2 43 -2q328 0 328 272q0 120 -64 184q-60 60 -172 60h-14l-117 -4h-4v-510z" />
<glyph unicode="S" horiz-adv-x="1047" d="M49 220.5q0 81.5 52.5 129t155.5 47.5q0 -144 60 -210.5t190 -66.5t204.5 60t74.5 150t-70.5 145.5t-188.5 106.5t-155.5 67.5t-98.5 55t-88 74.5q-77 94 -77 216q0 187 138 285q137 97 330 97q1 -1 2 -1q195 0 295 -98q57 -58 57 -143q0 -83 -51 -126q-41 -34 -100 -34 q-15 0 -32 2q0 250 -218 250q-96 0 -156 -44t-60 -121q0 -59 27.5 -87.5t41.5 -41.5t52 -34t54.5 -28.5t69 -30t69.5 -30.5q201 -88 282.5 -168.5t81.5 -224.5q0 -199 -140 -323t-377 -124q-240 0 -360 109q-65 60 -65 141.5z" />
<glyph unicode="T" horiz-adv-x="1249" d="M39 1069v278h1173v-278q0 -41 -26 -61.5t-46 -22.5t-55 -2l-19 216h-319v-1060l161 -11q1 -14 1 -26q0 -102 -89 -102h-482v15q0 109 86 117l77 3v1064h-316l-20 -216q-35 0 -55 2t-45.5 22.5t-25.5 61.5z" />
<glyph unicode="U" horiz-adv-x="1315" d="M22 1219q-3 5 -3 16q0 14 5 37q17 75 86 75h442v-16q0 -109 -86 -116l-57 -3v-672q0 -216 61 -314t214 -98q312 0 311 389l-2 690l-140 12q-1 13 -1 24q0 104 90 104h354v-16q0 -109 -86 -116l-58 -3v-642q0 -311 -125 -455.5t-368.5 -144.5t-369.5 137t-126 465v635z " />
<glyph unicode="V" horiz-adv-x="1270" d="M2 1219q-3 5 -3 16q0 14 5 37q17 75 86 75h452q-3 -77 -17 -94q-26 -34 -69 -38l-59 -3l271 -912l296 907l-156 12q-5 12 2 53q18 75 87 75h371v-16q0 -109 -86 -116l-47 -3l-415 -1212h-199l-393 1207z" />
<glyph unicode="W" horiz-adv-x="1908" d="M1 1263q1 22 22.5 53t64.5 31h441q-6 -75 -18 -92q-28 -36 -68 -40l-56 -3l236 -927l300 927h162l268 -927l267 922l-138 12q-1 13 -1 24q0 104 90 104h337v-20q0 -3 1 -5q0 -16 -3 -28q-3 -14 -9 -32q-13 -43 -68 -47l-36 -3l-377 -1212h-209l-254 786l-263 -786h-216 l-358 1207l-114 12q-1 15 -1 29v15z" />
<glyph unicode="X" d="M22 1219q-3 5 -3 16q0 14 5 37q17 75 86 75h498q-4 -77 -19 -94q-25 -34 -68 -38l-63 -3h-2l266 -392l253 387l-161 12q-1 13 -1 24q0 104 89 104h431v-16q0 -109 -87 -116l-70 -3l-370 -518l378 -555l145 -11q1 -13 1 -24q0 -104 -90 -104h-503q4 77 18 94q25 34 69 38 l63 3h4l-260 381l-237 -377h2l163 -11q1 -13 1 -24q0 -104 -91 -104h-432v15q0 109 87 117l71 3l351 506l-383 566z" />
<glyph unicode="Y" horiz-adv-x="1248" d="M2 1219q-3 5 -3 16q0 14 5 37q17 75 86 75h476q-3 -77 -18 -94q-26 -34 -68 -38l-63 -3h-4l266 -479l259 474l-154 12q-5 12 2 53q18 75 87 75h373v-16q0 -109 -86 -116l-49 -3l-364 -646v-427h2l140 -11q1 -13 1 -24q0 -104 -89 -104h-443v15q0 109 86 117l57 3v424 l-373 648z" />
<glyph unicode="Z" horiz-adv-x="1159" d="M28 105l745 1094l-476 -15l-18 -164q-14 -112 -110 -112q-19 0 -41 4v435h914q52 -38 53 -96l-737 -1110l565 30l23 165q8 72 46 94q25 14 61 15q18 0 40 -4v-441h-1028q-31 69 -37 105z" />
<glyph unicode="[" horiz-adv-x="555" d="M157 -304v1747h340v-128h-151v-1492h151v-127h-340z" />
<glyph unicode="\" horiz-adv-x="737" d="M39 1370h195l464 -1547h-195z" />
<glyph unicode="]" horiz-adv-x="555" d="M59 -177h151v1492h-151v128h340v-1747h-340v127z" />
<glyph unicode="^" horiz-adv-x="1017" d="M118 401l344 883h114l324 -883h-208l-178 492l-188 -492h-208z" />
<glyph unicode="_" horiz-adv-x="786" d="M-59 -137h905v-148h-905v148z" />
<glyph unicode="`" horiz-adv-x="726" d="M139 1302q17 35 66.5 79.5t94.5 53.5l329 -270q-22 -49 -83 -80z" />
<glyph unicode="a" horiz-adv-x="1024" d="M59 246q0 129 100 211.5t317 82.5q85 0 161 -11v86q0 136 -44.5 193t-120.5 57t-123 -49t-47 -133q-16 -2 -30 -2q-58 0 -100 26q-52 32 -52 99q0 94 98.5 155t253.5 61q405 0 404 -393v-524l129 -17q0 -118 -153.5 -118t-198.5 103q-123 -103 -273 -103h-3 q-149 0 -233 74q-86 74 -85 202zM309 268q0 -137 141 -138q100 0 187 57v194q-71 26 -148.5 26t-128.5 -36.5t-51 -102.5z" />
<glyph unicode="b" horiz-adv-x="1153" d="M22 1362l389 43v-482q120 99 279.5 99t275.5 -115t120 -367v-17q0 -239 -122 -393q-126 -160 -366 -160q-108 0 -187 34l-240 75v1154l-77 7q-73 7 -73 100q0 11 1 22zM411 208q94 -78 202 -78q222 0 222 367q0 169 -57.5 262t-164 93t-202.5 -89v-555z" />
<glyph unicode="c" horiz-adv-x="927" d="M69 484q0 244 134 391t356 147q141 0 230 -60t89 -152t-54 -130q-45 -31 -95 -30q-11 0 -21 1q-2 84 -45.5 147t-139 63t-150 -91t-54.5 -256q0 -366 281 -366q132 0 252 105q19 -11 31 -38.5t12 -47.5q0 -63 -115.5 -130t-263.5 -67q-209 0 -328 135t-119 379z" />
<glyph unicode="d" horiz-adv-x="1133" d="M69 452v16q0 241 121 395q125 159 367 159q108 0 186 -33v244l-77 7q-74 7 -74 104q0 8 1 18l390 43v-1298l132 -13q0 -126 -166.5 -126t-197.5 109q-126 -107 -286.5 -107t-276 115t-119.5 367zM319 495q0 -169 58 -261.5t163 -92.5t203 89v554q-94 79 -203 79 q-221 0 -221 -368z" />
<glyph unicode="e" horiz-adv-x="976" d="M69 475q0 255 127 401t348 146q188 0 282 -118q90 -113 90 -295v-16v-111h-597v-22q0 -160 58 -237t200.5 -77t279.5 107q40 -29 40 -91t-109 -127t-272 -65q-213 0 -330 125t-117 380zM328 617h358q-3 134 -44.5 191t-118.5 57q-161 0 -195 -248z" />
<glyph unicode="f" horiz-adv-x="773" d="M59 0v15q0 109 87 117l57 3l1 720h-141q0 138 96 138h45v53q0 166 104.5 276.5t273.5 112.5h12q208 0 209 -133q0 -67 -44 -98.5t-112 -31.5q0 126 -97 126q-108 0 -107 -244v-61h253q1 -12 1 -24q0 -114 -93 -114h-161v-716h1l199 -11q6 -12 -2 -53q-17 -75 -86 -75 h-496z" />
<glyph unicode="g" horiz-adv-x="949" d="M37 -191q0 118 115 225q-30 35 -30 94q0 104 98 218q-151 97 -151 296q0 166 105 273t282 107q116 0 204 -47l264 71q18 -22 20 -81v-10q0 -51 -20 -68q-24 -13 -114 -13q-18 0 -39 1q50 -75 50 -199q0 -18 -1 -36q-8 -150 -112 -251.5t-271 -101.5q-49 0 -99 10 q-28 -48 -28 -70q0 -23 46 -29q45 -7 214 -13t262.5 -60t93.5 -185q0 -181 -139.5 -289.5t-343 -108.5t-305 74.5t-101.5 192.5zM212 -143.5q0 -60.5 63 -100t188.5 -39.5t210.5 46t85 115q0 45 -67 59t-226.5 21.5t-204.5 17.5q-49 -59 -49 -119.5zM293 649 q0 -218 148 -218q71 0 111.5 57.5t40.5 162.5t-38.5 163.5t-111.5 58.5t-111.5 -59t-38.5 -165z" />
<glyph unicode="h" horiz-adv-x="1275" d="M60 1360l390 44v-502q139 120 289 120t255 -101t105 -311v-471l139 -11q1 -14 1 -26q0 -102 -89 -102h-435v15q0 109 88 117l56 3v484q0 116 -47 161.5t-151 45.5t-211 -91v-596l139 -11q1 -14 1 -26q0 -102 -89 -102h-438v15q0 109 87 117l60 3v1096l-77 7 q-74 7 -74 104q0 9 1 18z" />
<glyph unicode="i" horiz-adv-x="626" d="M60 979l390 43v-883l139 -11q1 -14 1 -26q0 -102 -89 -102h-438v15q0 109 87 117l60 3v715l-77 7q-74 7 -74 104q0 9 1 18zM169 1256q0 61 42 103.5t103 42.5t103.5 -42.5t42.5 -103.5t-41.5 -103t-103.5 -42t-104 42t-42 103z" />
<glyph unicode="j" horiz-adv-x="574" d="M-161 -315q0 59 41 89.5t105 30.5q0 -45 18.5 -76t67.5 -31t77.5 48t28.5 211v895l-85 7q-67 6 -66 122l391 41v-874q0 -311 -113 -460q-111 -146 -293 -146h-5q-43 0 -85 17q-82 38 -82 126zM137 1258q0 61 42.5 103.5t103.5 42.5t103 -42.5t42 -104.5t-41 -103 t-103 -41t-104.5 42t-42.5 103z" />
<glyph unicode="k" horiz-adv-x="1152" d="M60 1362l390 43v-880l278 328l-113 12q-5 11 2 53q18 75 87 75h352v-16q0 -108 -86 -116l-44 -2l-240 -271l323 -449l131 -11q1 -9 1 -18q0 -44 -24 -74q-29 -36 -75 -36h-211l-294 419l-87 -96v-184l141 -11q6 -12 -2 -53q-17 -75 -86 -75h-438v15q0 109 87 117l58 3 v1098l-77 7q-74 7 -74 104q0 9 1 18z" />
<glyph unicode="l" horiz-adv-x="626" d="M60 1362l390 43v-1266l139 -11q1 -14 1 -26q0 -102 -89 -102h-438v15q0 109 87 117l60 3v1098l-77 7q-74 7 -74 104q0 9 1 18z" />
<glyph unicode="m" horiz-adv-x="1891" d="M60 968l357 43l14 -120h6q51 45 80 66.5t89 43t136 21.5t153 -38t125 -117q164 155 324 155t265.5 -101t105.5 -311v-471l139 -11q3 -5 3 -16q0 -14 -5 -37q-17 -75 -87 -75h-434v15q0 109 87 117l57 3v484q0 114 -47.5 160.5t-150.5 46.5t-208 -91q14 -60 14 -125v-471 l140 -11q1 -14 1 -26q0 -102 -89 -102h-439v15q0 109 86 117l62 3v484q0 114 -47.5 160.5t-143.5 46.5t-203 -91v-596l139 -11q1 -14 1 -26q0 -102 -89 -102h-438v15q0 109 87 117l60 3v702l-77 9q-74 6 -74 104q0 9 1 18z" />
<glyph unicode="n" horiz-adv-x="1275" d="M60 968l357 43l14 -120h6q73 63 140.5 97t159.5 34q152 0 257 -101t105 -311v-471l139 -11q1 -14 1 -26q0 -102 -89 -102h-435v15q0 109 88 117l56 3v484q0 114 -45 160.5t-125.5 46.5t-132 -22t-106.5 -69v-596l139 -11q1 -14 1 -26q0 -102 -89 -102h-438v15 q0 109 87 117l60 3v702l-77 9q-74 6 -74 104q0 9 1 18z" />
<glyph unicode="o" horiz-adv-x="1065" d="M69 481q0 251 125 396t347 145t338.5 -139.5t116.5 -386t-125.5 -386.5t-350.5 -140t-338 130t-113 381zM319 490.5q0 -175.5 56 -273t158.5 -97.5t158 95.5t55.5 271t-55.5 280t-158 104.5t-158.5 -102.5t-56 -278z" />
<glyph unicode="p" horiz-adv-x="1153" d="M24 -413q0 109 86 116l61 4v1130l-85 11q-60 7 -60 118l353 45l18 -103q128 114 290.5 114t278 -115t120.5 -367v-17q0 -240 -122 -393q-125 -160 -366 -160q-108 0 -187 34v-293h2l137 -11q1 -14 1 -26q0 -102 -89 -102h-438v15zM411 208q94 -78 202 -78q222 0 222 367 q0 169 -57.5 262t-164 93t-202.5 -89v-555z" />
<glyph unicode="q" horiz-adv-x="1102" d="M69 452v16q0 241 121 395q125 159 367 159q139 0 247 -65l179 36v-1282h2l124 -11q1 -13 1 -24q0 -104 -90 -104h-424v15q0 109 87 116l60 4v364q-120 -100 -279 -101h-2q-158 0 -274 116q-115 115 -119 366zM319 495q0 -169 58 -261.5t163 -92.5t203 89v554 q-94 79 -203 79q-221 0 -221 -368z" />
<glyph unicode="r" horiz-adv-x="878" d="M59 968l356 45l18 -163h6q47 62 134 117t151 55t107.5 -41t43.5 -136.5t-65 -152.5q-23 -18 -69 -18q-19 0 -43 3q0 65 -12 99t-25.5 41t-37.5 7q-98 0 -177 -128v-557l160 -11q1 -13 1 -24q0 -104 -90 -104h-454v15q0 109 87 117l56 3v704l-86 11q-60 5 -61 118z" />
<glyph unicode="s" horiz-adv-x="852" d="M49 175q0 69 49.5 107.5t115.5 38.5q26 -201 229 -201q163 0 163 108q0 72 -87 114q-47 26 -114 51.5t-105.5 44t-83.5 48.5t-75 60q-65 73 -64 178q0 141 113.5 219.5t273 78.5t240.5 -73q49 -43 49 -111q-1 -68 -45 -106q-35 -30 -84 -30q-13 0 -28 2q0 73 -57 122.5 t-127 49.5t-107 -26t-37 -69.5t53.5 -78t153 -74t142.5 -62t92 -59.5q95 -71 95 -209.5t-112 -233t-298 -94.5q-138 0 -241.5 51.5t-103.5 153.5z" />
<glyph unicode="t" horiz-adv-x="805" d="M6 855q0 138 96 138h67v251l240 26v-277h354q1 -8 1 -16q0 -23 -8 -51q-17 -71 -90 -71h-257v-544q0 -159 102 -159q75 0 125 19.5t107 66.5q10 0 25.5 -25.5t15.5 -55.5q0 -76 -108 -131.5t-210 -55.5t-161 29t-89 84q-47 90 -47 240v532h-163z" />
<glyph unicode="u" horiz-adv-x="1180" d="M19 853v16q0 124 88 124h296v-620q0 -121 47 -172t145.5 -51t186.5 66v637h-153v16q0 124 86 124h307v-861h44q67 -2 67 -124l-280 -27l-41 109q-139 -120 -288 -120t-255 101.5t-106 311.5v470h-144z" />
<glyph unicode="v" horiz-adv-x="1026" d="M0 865v9q0 44 18 80q20 38 66 39h390q-4 -73 -18 -91q-30 -37 -69 -41l-31 -4l190 -495l193 493l-84 10q-6 11 2 53q17 75 86 75h283q0 -126 -71 -132l-29 -4l-354 -857h-131l-349 853h-2z" />
<glyph unicode="w" horiz-adv-x="1437" d="M0 865v9q0 44 18 80q20 38 66 39h390q-4 -73 -18 -91q-30 -37 -69 -41l-33 -4l139 -484l181 524l159 2l154 -500l157 456l-78 10q-1 14 -1 26q0 102 89 102h283q0 -126 -71 -132l-29 -4l-335 -857h-131l-175 521l-197 -521h-131l-278 853z" />
<glyph unicode="x" horiz-adv-x="1032" d="M12 865q-1 7 -1 16q0 19 6 43q19 69 81 69h2h405q-6 -69 -17 -87q-26 -35 -85 -49h-2l167 -232l145 228h-4l-82 12q-6 11 2 53q17 75 86 75h296v-16q0 -108 -87 -116l-41 -4l-232 -346l267 -372l102 -11q3 -6 3 -17q0 -14 -4 -36q-18 -75 -87 -75h-413q4 75 18 90 q29 34 69 42l23 3h4l-169 235l-145 -231l101 -11q1 -14 1 -26q0 -102 -89 -102h-319v15q0 109 87 117l46 3l239 345l-269 373z" />
<glyph unicode="y" horiz-adv-x="1053" d="M2 865q-3 5 -3 15q0 14 5 38q17 75 86 75h407q-5 -73 -17 -91q-30 -33 -69 -41l-21 -4l198 -491l189 489l-93 10q-1 13 -1 24q0 104 90 104h281v-16q0 -101 -86 -116l-9 -2l-326 -792h3q-10 -22 -36 -83t-37 -85.5t-36.5 -77.5t-41.5 -77.5t-41 -64t-48 -58t-52 -40.5 q-53 -39 -133.5 -39t-129.5 41.5t-49 101.5t35 96.5t78.5 36.5t53.5 -5q-5 -26 -5 -45q0 -59 49 -59h1q56 0 120 123t104 251l-348 770h-10z" />
<glyph unicode="z" horiz-adv-x="878" d="M30 108l522 759l-300 -12l-14 -104q-6 -53 -50 -71q-26 -11 -56 -11q-20 0 -40 5v319h702q15 -14 31.5 -53.5t16.5 -63.5l-512 -744l356 12l18 102q6 52 50 70q27 11 57 11q19 0 39 -4v-323h-787q-33 63 -33 108z" />
<glyph unicode="{" horiz-adv-x="726" d="M98 503v75q65 28 87 55q45 51 45 132t-15.5 218t-15.5 201q0 116 83.5 187.5t224 71.5t181.5 -25l-4 -109q-27 4 -59 4q-105 0 -166.5 -38.5t-61.5 -100.5q0 -39 17 -160t17 -217.5t-29.5 -163.5t-77.5 -83v-19q48 -15 77.5 -82.5t29.5 -144.5t-17 -213t-17 -191.5 t62 -93.5t166 -38q32 0 59 4l4 -108q-80 -26 -206 -26t-204.5 72t-78.5 188q0 59 15.5 198.5t15.5 220t-45 131.5q-22 28 -87 55z" />
<glyph unicode="|" horiz-adv-x="581" d="M197 -379v1822h188v-1822h-188z" />
<glyph unicode="}" horiz-adv-x="726" d="M39 -336l4 108q28 -4 59 -4q104 0 166 38t62 93.5t-16.5 191.5t-16.5 213t29.5 144.5t76.5 82.5v19q-47 15 -76.5 82.5t-29.5 164t16.5 217.5t16.5 160q0 63 -62 101t-166 38q-32 0 -59 -4l-4 109q42 26 182.5 25.5t224 -72t83.5 -187.5q0 -64 -16 -201t-16 -218t45 -132 q22 -28 87 -55v-75q-65 -28 -87 -55q-45 -51 -45 -131.5t16 -220t16 -198.5q0 -116 -78.5 -188t-204.5 -72t-207 26z" />
<glyph unicode="~" horiz-adv-x="1178" d="M197 476q17 112 81 182t148.5 70t180 -58t154.5 -58t98.5 27t50.5 72l73 -17q-19 -130 -80 -193.5t-162.5 -63.5t-201.5 51t-141.5 51t-75 -23.5t-48.5 -63.5z" />
<glyph unicode="&#xa1;" horiz-adv-x="467" d="M79 1248.5q0 64.5 45 110t110 45.5t110.5 -45.5t45.5 -110t-45.5 -110t-110.5 -45.5t-110 45.5t-45 110zM116 0l38 944q84 22 161 0l60 -957q-147 -28 -259 13z" />
<glyph unicode="&#xa2;" horiz-adv-x="1026" d="M98 475q0 225 103 369.5t294 172.5l-15 182q26 15 86.5 15.5t90.5 -15.5l-18 -179q124 -11 196.5 -68t72.5 -145.5t-55 -126t-116 -29.5q-2 84 -45 147t-137.5 63t-150.5 -90t-56 -256.5t63 -267.5t213.5 -101t260.5 98q17 -12 30 -39.5t13 -41.5q0 -55 -84.5 -111 t-206.5 -76l20 -204q-30 -16 -91 -16t-86 16l17 198q-185 14 -292 147t-107 358z" />
<glyph unicode="&#xa3;" horiz-adv-x="1071" d="M90 112q92 26 134 98q43 81 55 306h-161v131h165q0 83 4 118q19 474 401 473q120 0 198 -49.5t78 -131.5t-45.5 -116.5t-120.5 -28.5q0 189 -134 189q-148 0 -165 -336l-4 -118h301v-131h-308q-12 -154 -33.5 -245t-62.5 -117h591q8 -154 -114 -154h-767q-18 41 -12 112z " />
<glyph unicode="&#xa4;" horiz-adv-x="1182" d="M88 179l188 151q-70 90 -70 228t70 234l-188 150q26 31 71 76.5t69 56.5l155 -182q92 49 210 49t203 -53l159 186q24 -11 69 -56.5t71 -76.5l-191 -156q62 -94 62 -226t-62 -226l191 -155q-24 -32 -70 -77t-70 -59l-161 191q-83 -51 -202.5 -51.5t-204.5 47.5l-159 -187 q-24 14 -70 59.5t-70 76.5zM392 562.5q0 -90.5 52.5 -146.5t140 -56t142.5 56t55 145.5t-55 145.5t-142.5 56t-140 -55t-52.5 -145.5z" />
<glyph unicode="&#xa5;" horiz-adv-x="1306" d="M32 1092q-12 127 88 127h452q-4 -77 -17 -95q-26 -33 -69 -36l-47 -3l251 -389l234 385l-145 11q-12 127 88 127h413v-16q0 -109 -87 -115l-71 -5h-6l-279 -436h158v-131h-215v-101h215v-132h-215v-144h2l141 -11q5 -12 -3 -53q-18 -75 -87 -75h-434v15q0 109 87 117 l56 3v148h-225v132h225v101h-225v131h151l-305 434z" />
<glyph unicode="&#xa6;" horiz-adv-x="581" d="M197 358h188v-737h-188v737zM197 706v737h188v-737h-188z" />
<glyph unicode="&#xa7;" horiz-adv-x="1137" d="M98 -332q0 82 52.5 129t155.5 47q0 -144 60 -210.5t190 -66.5t204.5 60t74.5 150.5t-70.5 145.5t-188.5 106.5t-155.5 68t-98.5 55t-90 74.5q-75 94 -75 216q0 176 136 283q-136 102 -136 279t138 274.5t326 97.5q201 0 302 -99q56 -57 56 -141.5t-51.5 -127.5 t-131.5 -32q0 250 -218 250q-96 0 -156 -44t-60 -121q0 -59 27.5 -87.5t41 -41.5t52 -34t55.5 -28.5t69 -30t70 -30.5q200 -88 281.5 -168.5t81.5 -242t-114 -281.5q114 -94 114 -253q0 -199 -139.5 -323t-377.5 -124q-240 0 -358 110q-67 58 -67 140zM362 509 q0 -59 27.5 -87t41 -41t52 -34t55.5 -28.5t69 -30.5t92 -39.5t89 -44.5q47 53 47 134.5t-70.5 137t-225.5 122.5q-20 8 -100 43q-77 -44 -77 -132z" />
<glyph unicode="&#xa8;" horiz-adv-x="1178" d="M175 1266.5q0 56.5 41 97t98.5 40.5t97.5 -40.5t40 -97t-40 -97t-97.5 -40.5t-98.5 40.5t-41 97zM550 1265.5q0 55.5 41.5 97t98.5 41.5t97.5 -40.5t40.5 -97t-40.5 -97t-98.5 -40.5t-98.5 40.5t-40.5 96z" />
<glyph unicode="&#xa9;" horiz-adv-x="1407" d="M98 603q0 273 164 444.5t437.5 171.5t441.5 -166t168 -441.5t-165 -441.5t-440.5 -166t-440.5 163t-165 436zM274 608.5q0 -207.5 115.5 -327.5t315 -120t316 121t116.5 329.5t-119 329.5t-317 121t-312.5 -123t-114.5 -330.5zM452 608.5q0 140.5 77 226t210 85.5 q87 0 140 -35t53 -88.5t-32.5 -75t-68.5 -15.5q0 37 -26 69.5t-77 32.5t-82 -46.5t-31 -122.5q0 -212 152 -213q85 0 149 60q26 -18 26 -60.5t-69 -78.5t-173 -36t-176 78.5t-72 219z" />
<glyph unicode="&#xaa;" horiz-adv-x="741" d="M73 750.5q0 84.5 68.5 137t216.5 52.5q57 0 102 -8v36q0 161 -106 161q-110 0 -110 -114q-55 -6 -90.5 17.5t-35.5 77.5t66 94t184 40q268 0 268 -265v-315l75 -9q0 -83 -104 -83t-135 67q-80 -67 -182.5 -67t-159.5 47t-57 131.5zM259 756q0 -63 89 -62q56 0 112 36v94 q-43 13 -87 13q-114 0 -114 -81z" />
<glyph unicode="&#xab;" horiz-adv-x="1220" d="M86 437q-17 58 0 115l480 414l113 -99l-315 -364v-17l326 -364l-124 -98zM578 437q-17 58 0 115l480 414l112 -99l-315 -364v-17l327 -364l-124 -98z" />
<glyph unicode="&#xac;" horiz-adv-x="998" d="M98 456v157h802v-157l-1 -238h-158l2 238h-645z" />
<glyph unicode="&#xad;" horiz-adv-x="795" d="M79 437v176h639v-176h-639z" />
<glyph unicode="&#xae;" horiz-adv-x="1240" d="M98 901.5q0 237.5 148 382t382.5 144.5t374 -148.5t139.5 -384t-144.5 -378t-376.5 -144.5q-232 2 -377.5 146.5t-145.5 382zM246 900.5q0 -182.5 103 -290t271 -107.5t271.5 105t103.5 288t-99.5 292.5t-270.5 109.5t-275 -107.5t-104 -290zM411 1103q0 24 9 46.5 t24 22.5h179q199 0 199 -132q0 -115 -126 -145q90 -163 191 -163q-4 -34 -29 -53.5t-55 -19.5q-64 0 -120 69.5t-90 154.5h-15v-142l69 -4q4 -15 -3.5 -42t-37.5 -27h-193q0 67 37 71h18v358zM578 949h4q127 0 127 83q0 71 -86 71h-45v-154z" />
<glyph unicode="&#xaf;" horiz-adv-x="1178" d="M216 1137v137h580v-137h-580z" />
<glyph unicode="&#xb0;" horiz-adv-x="766" d="M118 1138.5q0 114.5 76 185t191.5 70.5t189.5 -69.5t74 -184t-75 -186t-190.5 -71.5t-190.5 70.5t-75 185zM272 1140.5q0 -50.5 31 -85.5t81.5 -35t80.5 34t30 84.5t-31 83.5t-81.5 33t-80.5 -32t-30 -82.5z" />
<glyph unicode="&#xb1;" horiz-adv-x="998" d="M98 0v157h802v-157h-802zM98 446v158h322v322h162v-322h318v-158h-318v-193h-162v193h-322z" />
<glyph unicode="&#xb2;" horiz-adv-x="693" d="M75 637q9 8 56.5 45.5t67 53t61.5 53t63 62.5t47 61q47 63 47 118t-21 83.5t-54 28.5q-59 0 -86.5 -47t-27.5 -112q-135 -4 -136 94q0 71 71 117t185 46t182 -52.5t68 -153t-101 -208.5t-214 -173h252l7 71q2 30 30 39.5t57 1.5v-219h-531q-30 73 -23 91z" />
<glyph unicode="&#xb3;" horiz-adv-x="638" d="M69 660q0 32 26.5 53.5t73.5 21.5q0 -41 34.5 -69.5t88.5 -28.5t86.5 28.5t32.5 73.5q0 124 -210 109l-2 103q63 0 123.5 31.5t60.5 98.5q0 28 -18.5 44.5t-51.5 16.5q-88 0 -105 -102q-98 0 -98 73q0 54 56 90.5t166.5 36.5t175 -41t64.5 -111q0 -118 -173 -162 q96 -9 148.5 -57.5t52.5 -128.5t-78.5 -140.5t-202.5 -60.5t-187 36.5t-63 84.5z" />
<glyph unicode="&#xb4;" horiz-adv-x="1178" d="M311 1165l328 270q45 -9 94.5 -53.5t67.5 -79.5l-407 -217q-61 31 -83 80z" />
<glyph unicode="&#xb5;" horiz-adv-x="1152" d="M118 -444l10 759q-4 43 -4 68v610h240v-620q0 -121 47 -172t143.5 -51t180.5 60v783h240v-888l128 -17q0 -118 -153.5 -118t-198.5 103q-124 -102 -263 -103q-66 0 -134 22l10 -436q-30 -20 -130.5 -20t-115.5 20z" />
<glyph unicode="&#xb6;" horiz-adv-x="1476" d="M88 946q0 183 106.5 292t279.5 109h837q38 0 58.5 -33.5t18.5 -90.5l-144 -11v-1389h-242v1389h-214v-1389h-242v717q-214 0 -336 111.5t-122 294.5z" />
<glyph unicode="&#xb7;" horiz-adv-x="482" d="M79 552.5q0 68.5 47 115.5t116 47t116 -47t47 -115.5t-47 -115.5t-116 -47t-116 47t-47 115.5z" />
<glyph unicode="&#xb8;" horiz-adv-x="1178" d="M417 -348q-2 23 6 49.5t18 33.5q35 -30 99 -30t64 59q0 33 -28 50t-108 17l53 205h106l-31 -126q83 0 124 -43.5t41 -108t-55 -113t-146.5 -48.5t-142.5 55z" />
<glyph unicode="&#xb9;" horiz-adv-x="577" d="M59 1109l196 108q30 16 95 16q46 0 46 -65v-521l121 -8q-1 -93 -59 -93h-366v13q0 22 8 43q11 35 50 39l68 4v413l-74 -24q-36 -10 -61.5 23t-23.5 52z" />
<glyph unicode="&#xba;" horiz-adv-x="788" d="M81 900.5q0 161.5 81.5 252.5t231.5 91t224 -97t74 -251.5t-82.5 -239t-232.5 -84.5t-223 83.5t-73 245zM263 906q0 -216 123 -216t123 203q0 234 -122 234q-59 0 -91.5 -58t-32.5 -163z" />
<glyph unicode="&#xbb;" horiz-adv-x="1220" d="M39 122l327 364v17l-315 364l112 99l480 -414q17 -57 0 -115l-480 -413zM531 122l326 364v17l-315 364l113 99l480 -414q17 -57 0 -115l-480 -413z" />
<glyph unicode="&#xbc;" horiz-adv-x="1454" d="M59 1109l196 108q30 16 95 16q46 0 46 -65v-521l120 -8q-1 -93 -60 -93h-362v13q0 22 8 43q11 35 50 39l66 4v413l-74 -24q-36 -10 -61.5 23t-23.5 52zM293 0l700 1238h206l-700 -1238h-206zM792 197l348 489q79 16 147 8v-478h90v-98h-90v-137l-176 -11v148h-282 q-27 34 -37 79zM936 216h175v252z" />
<glyph unicode="&#xbd;" horiz-adv-x="1454" d="M37 1105l197 108q30 16 94 16q45 0 45 -65v-521l120 -7q0 -94 -58 -94h-362v13q0 22 8 43q11 36 49 39l67 4v413l-75 -24q-36 -10 -61 22.5t-24 52.5zM270 0l700 1238h206l-700 -1238h-206zM863 90q10 8 57.5 45.5t67 53t62 53t63 63t45.5 61.5q47 63 47 118t-20.5 83.5 t-53.5 28.5q-59 0 -86.5 -47.5t-27.5 -111.5q-136 -4 -136 94q0 71 70.5 117t185 46t182 -53t67.5 -153.5t-101 -208.5t-214 -172h252l8 70q1 29 29 39.5t58 1.5v-218h-531q-30 73 -24 90z" />
<glyph unicode="&#xbe;" horiz-adv-x="1454" d="M69 660q0 32 26.5 53.5t73.5 21.5q0 -41 34.5 -69.5t88.5 -28.5t86.5 28.5t32.5 73.5q0 124 -210 109l-2 103q63 0 123.5 31.5t60.5 98.5q0 28 -18.5 44.5t-51.5 16.5q-88 0 -105 -102q-98 0 -98 73q0 54 56 90.5t166.5 36.5t175 -41t64.5 -111q0 -118 -173 -162 q96 -9 148.5 -57.5t52.5 -128.5t-78.5 -140.5t-202.5 -60.5t-187 36.5t-63 84.5zM332 0l700 1238h206l-699 -1238h-207zM804 197l348 489q79 16 148 8v-478h88v-98h-88v-137l-178 -11v148h-280q-28 34 -38 79zM948 216h174v252z" />
<glyph unicode="&#xbf;" horiz-adv-x="988" d="M79 290q0 160 119 279t301 151l12 198q54 13 157 0l13 -310q-138 -34 -238 -99q-115 -73 -115 -210q0 -89 48 -150t134 -61t141 53q90 87 90 203q71 0 120 -32.5t49 -97.5q0 -102 -107 -188t-302 -86t-308.5 95t-113.5 255zM435 1219q0 65 45 110.5t110 45.5t110 -45.5 t45 -110.5t-45 -110t-110 -45t-110 45t-45 110z" />
<glyph unicode="&#xc0;" horiz-adv-x="1296" d="M26 0v15q0 109 86 117l73 3l378 1212q84 8 198 0l370 -1208l137 -11q6 -12 -2 -53q-17 -75 -86 -75h-460v15q0 109 86 117l57 3h2l-79 285h-353l-83 -281l159 -11q6 -12 -2 -53q-17 -75 -87 -75h-394zM362 1655q17 36 66.5 80.5t94.5 53.5l329 -269q-23 -49 -83 -81z M469 552h282l-136 498z" />
<glyph unicode="&#xc1;" horiz-adv-x="1296" d="M26 0v15q0 109 86 117l73 3l378 1212q84 8 198 0l370 -1208l137 -11q6 -12 -2 -53q-17 -75 -86 -75h-460v15q0 109 86 117l57 3h2l-79 285h-353l-83 -281l159 -11q6 -12 -2 -53q-17 -75 -87 -75h-394zM469 552h282l-136 498zM499 1520l329 269q45 -9 94.5 -53.5 t66.5 -80.5l-407 -216q-61 32 -83 81z" />
<glyph unicode="&#xc2;" horiz-adv-x="1296" d="M26 0v15q0 109 86 117l73 3l378 1212q84 8 198 0l370 -1208l137 -11q6 -12 -2 -53q-17 -75 -86 -75h-460v15q0 109 86 117l57 3h2l-79 285h-353l-83 -281l159 -11q6 -12 -2 -53q-17 -75 -87 -75h-394zM317 1497l272 247q81 18 150 0l266 -247q-33 -53 -73 -75l-272 169 l-275 -169q-43 26 -68 75zM469 552h282l-136 498z" />
<glyph unicode="&#xc3;" horiz-adv-x="1296" d="M26 0v15q0 109 86 117l73 3l378 1212q84 8 198 0l370 -1208l137 -11q6 -12 -2 -53q-17 -75 -86 -75h-460v15q0 109 86 117l57 3h2l-79 285h-353l-83 -281l159 -11q6 -12 -2 -53q-17 -75 -87 -75h-394zM326 1499q16 112 71 181.5t128 69.5t154.5 -58t132.5 -58t85.5 27.5 t44.5 72.5l63 -18q-33 -257 -219 -257q-78 0 -164.5 51t-122 51t-65 -23.5t-40.5 -62.5zM469 552h282l-136 498z" />
<glyph unicode="&#xc4;" horiz-adv-x="1296" d="M26 0v15q0 109 86 117l73 3l378 1212q84 8 198 0l370 -1208l137 -11q6 -12 -2 -53q-17 -75 -86 -75h-460v15q0 109 86 117l57 3h2l-79 285h-353l-83 -281l159 -11q6 -12 -2 -53q-17 -75 -87 -75h-394zM324 1620q0 57 41.5 97.5t98.5 40.5t97.5 -40.5t40.5 -97.5 t-40.5 -97.5t-97.5 -40.5t-98.5 40.5t-41.5 97.5zM469 552h282l-136 498zM700 1619q0 56 41 97.5t98.5 41.5t97.5 -40.5t40 -97.5t-40 -97.5t-98.5 -40.5t-98.5 40.5t-40 96.5z" />
<glyph unicode="&#xc5;" horiz-adv-x="1296" d="M26 0v15q0 109 86 117l73 3l378 1212q84 8 198 0l370 -1208l137 -11q6 -12 -2 -53q-17 -75 -86 -75h-460v15q0 109 86 117l57 3h2l-79 285h-353l-83 -281l159 -11q6 -12 -2 -53q-17 -75 -87 -75h-394zM469 552h282l-136 498zM480 1606q0 81 52 131.5t137.5 50.5 t135.5 -48.5t48.5 -129.5t-54 -131t-136 -50t-133.5 48t-50 129zM584 1608q0 -39 22.5 -61.5t60 -22.5t61 22.5t23.5 60.5t-22.5 61t-61 23t-61 -22t-22.5 -61z" />
<glyph unicode="&#xc6;" horiz-adv-x="1776" d="M26 0v15q0 109 86 117l77 3l588 1212h900v-297q0 -88 -126 -77l-18 232l-418 7v-488l352 41q22 -94 2 -195l-354 19v-450l459 17l17 241q125 12 125 -76v-321h-990q0 126 86 132l57 3v437h-310l-205 -433l155 -11q6 -12 -2 -53q-17 -75 -87 -75h-394zM619 704h250v503 l-12 3z" />
<glyph unicode="&#xc7;" horiz-adv-x="1182" d="M69 664.5q0 318.5 168 515.5t491 197q171 0 278 -76t107 -183q0 -78 -53 -121.5t-144 -43.5q0 254 -212 254q-181 0 -280.5 -146.5t-99.5 -397t96.5 -384t305 -133.5t367.5 119q32 -19 31 -62q0 -73 -121.5 -145.5t-291.5 -85.5l-15 -62q83 0 124 -43.5t41 -108t-55 -113 t-146.5 -48.5t-142.5 55q-1 23 6.5 49.5t16.5 33.5q36 -30 100 -30t64 59q0 33 -27.5 50t-108.5 17l38 141q-266 16 -401.5 195t-135.5 497.5z" />
<glyph unicode="&#xc8;" horiz-adv-x="1126" d="M79 0q0 126 86 132l57 3v1072l-141 12q-6 12 2 53q17 75 86 75h861v-297q0 -88 -126 -77l-17 232l-419 7v-488l352 41q22 -94 2 -195l-354 19v-450l458 17l16 241q126 12 126 -76v-321h-989zM332 1655q17 36 66.5 80t94.5 54l329 -269q-22 -49 -83 -81z" />
<glyph unicode="&#xc9;" horiz-adv-x="1126" d="M79 0q0 126 86 132l57 3v1072l-141 12q-6 12 2 53q17 75 86 75h861v-297q0 -88 -126 -77l-17 232l-419 7v-488l352 41q22 -94 2 -195l-354 19v-450l458 17l16 241q126 12 126 -76v-321h-989zM469 1520l329 269q45 -9 94.5 -53.5t66.5 -80.5l-407 -216q-60 32 -83 81z" />
<glyph unicode="&#xca;" horiz-adv-x="1126" d="M79 0q0 126 86 132l57 3v1072l-141 12q-6 12 2 53q17 75 86 75h861v-297q0 -88 -126 -77l-17 232l-419 7v-488l352 41q22 -94 2 -195l-354 19v-450l458 17l16 241q126 12 126 -76v-321h-989zM287 1497l274 247q80 18 148 0l266 -247q-33 -53 -73 -75l-271 169l-275 -169 q-43 26 -69 75z" />
<glyph unicode="&#xcb;" horiz-adv-x="1126" d="M79 0q0 126 86 132l57 3v1072l-141 12q-6 12 2 53q17 75 86 75h861v-297q0 -88 -126 -77l-17 232l-419 7v-488l352 41q22 -94 2 -195l-354 19v-450l458 17l16 241q126 12 126 -76v-321h-989zM295 1620q0 57 41 97.5t98.5 40.5t97.5 -40.5t40 -97.5t-40 -97.5t-97.5 -40.5 t-98.5 40.5t-41 97.5zM670 1619q0 56 40.5 97.5t98.5 41.5t98.5 -40.5t40.5 -97.5t-40.5 -97.5t-98.5 -40.5t-98.5 40.5t-40.5 96.5z" />
<glyph unicode="&#xcc;" horiz-adv-x="689" d="M45 1655q17 36 66.5 80.5t94.5 53.5l329 -269q-22 -49 -83 -81zM79 0v15q0 109 86 117l57 3v1072h-2l-139 12q-6 12 2 53q17 75 86 75h443v-16q0 -109 -87 -116l-57 -3v-1073h1l141 -11q11 -128 -89 -128h-442z" />
<glyph unicode="&#xcd;" horiz-adv-x="689" d="M79 0v15q0 109 86 117l57 3v1072h-2l-139 12q-6 12 2 53q17 75 86 75h443v-16q0 -109 -87 -116l-57 -3v-1073h1l141 -11q11 -128 -89 -128h-442zM182 1520l329 269q45 -9 94.5 -53.5t66.5 -80.5l-407 -216q-61 32 -83 81z" />
<glyph unicode="&#xce;" horiz-adv-x="689" d="M0 1497l274 247q79 18 148 0l266 -247q-33 -53 -73 -75l-271 169l-275 -169q-43 26 -69 75zM79 0v15q0 109 86 117l57 3v1072h-2l-139 12q-6 12 2 53q17 75 86 75h443v-16q0 -109 -87 -116l-57 -3v-1073h1l141 -11q11 -128 -89 -128h-442z" />
<glyph unicode="&#xcf;" horiz-adv-x="689" d="M8 1620q0 57 41 97.5t98 40.5t97.5 -40.5t40.5 -97.5t-40.5 -97.5t-97.5 -40.5t-98 40.5t-41 97.5zM79 0v15q0 109 86 117l57 3v1072h-2l-139 12q-6 12 2 53q17 75 86 75h443v-16q0 -109 -87 -116l-57 -3v-1073h1l141 -11q11 -128 -89 -128h-442zM383 1619 q0 56 40.5 97.5t98.5 41.5t98 -40.5t40 -97.5t-40 -97.5t-98 -40.5t-98.5 40.5t-40.5 96.5z" />
<glyph unicode="&#xd0;" horiz-adv-x="1415" d="M81 0q-6 47 10.5 86.5t58.5 43.5l70 7v456h-113v139h113v475h-2l-137 12q-2 69 19.5 98.5t81.5 29.5h461q689 0 688 -666q0 -331 -179 -506t-499 -175h-572zM466 144l127 -9q255 -15 368.5 112.5t113.5 424t-116.5 423t-382.5 117.5l-110 -5v-475h279v-139h-279v-449z " />
<glyph unicode="&#xd1;" horiz-adv-x="1364" d="M79 0v15q0 109 86 117l57 3v1072l-141 12q-6 12 2 53q17 75 86 75h257l614 -914v774l-140 12q-11 128 89 128h342v-16q0 -109 -87 -116l-56 -3v-1186q-59 -28 -152 -28l-666 997v-856l141 -11q11 -128 -89 -128h-343zM360 1499q15 112 70.5 181.5t128 69.5t154 -58 t133 -58t86 27.5t43.5 72.5l63 -18q-33 -257 -218 -257q-79 0 -165.5 51t-122 51t-64.5 -23.5t-42 -62.5z" />
<glyph unicode="&#xd2;" d="M69 665q0 331 169 521.5t456 190.5t439 -182t152 -513.5t-169.5 -521.5t-456.5 -190t-438.5 182t-151.5 513zM324 683q0 -270 87.5 -411.5t256.5 -143.5q179 2 270.5 138.5t91.5 404t-89 408t-264 140.5q-353 0 -353 -536zM394 1655q17 36 66 80t95 54l328 -269 q-22 -49 -82 -81z" />
<glyph unicode="&#xd3;" d="M69 665q0 331 169 521.5t456 190.5t439 -182t152 -513.5t-169.5 -521.5t-456.5 -190t-438.5 182t-151.5 513zM324 683q0 -270 87.5 -411.5t256.5 -143.5q179 2 270.5 138.5t91.5 404t-89 408t-264 140.5q-353 0 -353 -536zM531 1520l328 269q45 -9 94.5 -53.5t66.5 -80.5 l-407 -216q-60 32 -82 81z" />
<glyph unicode="&#xd4;" d="M69 665q0 331 169 521.5t456 190.5t439 -182t152 -513.5t-169.5 -521.5t-456.5 -190t-438.5 182t-151.5 513zM324 683q0 -270 87.5 -411.5t256.5 -143.5q362 4 362 542q0 268 -89 408.5t-264 140.5q-353 0 -353 -536zM348 1497l273 247q81 18 150 0l265 -247 q-34 -53 -72 -75l-272 169l-275 -169q-44 26 -69 75z" />
<glyph unicode="&#xd5;" d="M69 665q0 331 169 521.5t456 190.5t439 -182t152 -513.5t-169.5 -521.5t-456.5 -190t-438.5 182t-151.5 513zM324 683q0 -270 87.5 -411.5t256.5 -143.5q179 2 270.5 138.5t91.5 404t-89 408t-264 140.5q-353 0 -353 -536zM358 1499q15 111 70.5 181t128 70t154 -58 t133 -58t86 27.5t43.5 72.5l63 -18q-34 -257 -218 -257q-79 0 -165.5 51t-122 51t-64.5 -23.5t-42 -62.5z" />
<glyph unicode="&#xd6;" d="M69 665q0 331 169 521.5t456 190.5t439 -182t152 -513.5t-169.5 -521.5t-456.5 -190t-438.5 182t-151.5 513zM324 683q0 -270 87.5 -411.5t256.5 -143.5q179 2 270.5 138.5t91.5 404t-89 408t-264 140.5q-353 0 -353 -536zM356 1620q0 57 41.5 97.5t98 40.5t97 -40.5 t40.5 -97.5t-40.5 -97.5t-97 -40.5t-98 40.5t-41.5 97.5zM732 1619q0 56 41 97.5t98 41.5t97.5 -40.5t40.5 -97.5t-40.5 -97.5t-98.5 -40.5t-98 40.5t-40 96.5z" />
<glyph unicode="&#xd7;" horiz-adv-x="880" d="M98 297l228 228l-228 228l112 112l229 -228l227 228l116 -116l-227 -228l224 -224l-113 -112l-223 224l-229 -229z" />
<glyph unicode="&#xd8;" horiz-adv-x="1375" d="M68.5 646.5q0.5 349.5 169.5 540t470 190.5q141 0 247 -50l40 69l140 -71l-47 -83q198 -180 197.5 -536t-170 -546t-472.5 -190q-146 0 -262 56l-37 -63l-138 74l47 81q-185 179 -184.5 528.5zM324 683q0 -218 55 -347l482 828q-74 55 -184 55q-353 0 -353 -536zM478 195 q75 -63 190 -67q180 2 271 138.5t91 383.5t-64 384z" />
<glyph unicode="&#xd9;" horiz-adv-x="1315" d="M22 1219q-6 12 2 53q17 75 86 75h442v-16q0 -109 -86 -116l-57 -3v-672q0 -216 61 -314t214 -98q312 0 311 389l-2 690l-140 12q-11 128 89 128h354v-16q0 -109 -86 -116l-58 -3v-642q0 -311 -125 -455.5t-368.5 -144.5t-369.5 137t-126 465v635zM370 1655q17 36 66.5 80 t94.5 54l328 -269q-22 -49 -82 -81z" />
<glyph unicode="&#xda;" horiz-adv-x="1315" d="M22 1219q-6 12 2 53q17 75 86 75h442v-16q0 -109 -86 -116l-57 -3v-672q0 -216 61 -314t214 -98q312 0 311 389l-2 690l-140 12q-11 128 89 128h354v-16q0 -109 -86 -116l-58 -3v-642q0 -311 -125 -455.5t-368.5 -144.5t-369.5 137t-126 465v635zM507 1520l328 269 q45 -9 94.5 -53.5t66.5 -80.5l-407 -216q-60 32 -82 81z" />
<glyph unicode="&#xdb;" horiz-adv-x="1315" d="M22 1219q-6 12 2 53q17 75 86 75h442v-16q0 -109 -86 -116l-57 -3v-672q0 -216 61 -314t214 -98q312 0 311 389l-2 690l-140 12q-11 128 89 128h354v-16q0 -109 -86 -116l-58 -3v-642q0 -311 -125 -455.5t-368.5 -144.5t-369.5 137t-126 465v635zM324 1497l274 247 q81 18 149 0l266 -247q-34 -53 -73 -75l-272 169l-274 -169q-44 26 -70 75z" />
<glyph unicode="&#xdc;" horiz-adv-x="1315" d="M22 1219q-6 12 2 53q17 75 86 75h442v-16q0 -109 -86 -116l-57 -3v-672q0 -216 61 -314t214 -98q312 0 311 389l-2 690l-140 12q-11 128 89 128h354v-16q0 -109 -86 -116l-58 -3v-642q0 -311 -125 -455.5t-368.5 -144.5t-369.5 137t-126 465v635zM332 1620 q0 57 41.5 97.5t98.5 40.5t97.5 -40.5t40.5 -97.5t-40.5 -97.5t-97.5 -40.5t-98.5 40.5t-41.5 97.5zM708 1619q0 56 41 97.5t98 41.5t97.5 -40.5t40.5 -97.5t-40.5 -97.5t-98.5 -40.5t-98 40.5t-40 96.5z" />
<glyph unicode="&#xdd;" horiz-adv-x="1248" d="M2 1219q-6 12 2 53q17 75 86 75h476q-3 -77 -18 -94q-26 -34 -68 -38l-63 -3h-4l266 -479l259 474l-154 12q-5 12 2 53q18 75 87 75h373v-16q0 -109 -86 -116l-49 -3l-364 -646v-427h2l140 -11q11 -128 -88 -128h-443v15q0 109 86 117l57 3v424l-373 648zM495 1520 l329 269q45 -9 94.5 -53.5t66.5 -80.5l-407 -216q-61 32 -83 81z" />
<glyph unicode="&#xde;" horiz-adv-x="1153" d="M79 0v15q0 109 86 117l57 3v1072h-2l-139 12q-6 12 2 53q17 75 86 75h443v-16q0 -109 -87 -116l-57 -3v-107h110q246 0 383.5 -105t137.5 -299t-148.5 -306t-413.5 -112h-69v-144h1l141 -11q11 -128 -89 -128h-442zM468 405h29q165 0 258 79t93 214t-75 209t-209 74h-96 v-576z" />
<glyph unicode="&#xdf;" horiz-adv-x="1287" d="M60 0v15q0 109 88 117l60 1v745q0 274 122 415.5t353 141.5q182 0 283.5 -73t101.5 -197q0 -74 -41.5 -140t-90.5 -102q-132 -100 -132 -152q0 -71 201 -167q130 -61 181.5 -130t51.5 -165q0 -137 -102 -238t-275 -101q-129 0 -232.5 51.5t-103.5 153.5q0 69 49 107.5 t116 38.5q10 -89 67 -145t132 -56t113 35.5t38 84.5t-41.5 86.5t-118 77t-113.5 63t-85.5 63.5t-71 89t-22.5 110t27.5 111.5t68 85.5t79.5 69q96 78 96 163q0 124 -161 124q-250 0 -250 -413v-869h-388z" />
<glyph unicode="&#xe0;" horiz-adv-x="1024" d="M59 246.5q0 128.5 100 211t317 82.5q85 0 161 -11v86q0 136 -44.5 193t-120.5 57t-123 -49t-47 -133q-78 -8 -130 24t-52 99q0 94 98.5 155t253.5 61q405 0 404 -393v-524l129 -17q0 -118 -153.5 -118t-198.5 103q-124 -102 -273.5 -102.5t-235 73.5t-85.5 202.5z M189 1302q17 35 66.5 79.5t94.5 53.5l329 -270q-22 -49 -83 -80zM309 268q0 -137 141 -138q100 0 187 57v194q-71 26 -148.5 26t-128.5 -36.5t-51 -102.5z" />
<glyph unicode="&#xe1;" horiz-adv-x="1024" d="M59 246.5q0 128.5 100 211t317 82.5q85 0 161 -11v86q0 136 -44.5 193t-120.5 57t-123 -49t-47 -133q-78 -8 -130 24t-52 99q0 94 98.5 155t253.5 61q405 0 404 -393v-524l129 -17q0 -118 -153.5 -118t-198.5 103q-124 -102 -273.5 -102.5t-235 73.5t-85.5 202.5z M309 268q0 -137 141 -138q100 0 187 57v194q-71 26 -148.5 26t-128.5 -36.5t-51 -102.5zM326 1165l329 270q45 -9 94.5 -53.5t66.5 -79.5l-407 -217q-61 31 -83 80z" />
<glyph unicode="&#xe2;" horiz-adv-x="1024" d="M59 246.5q0 128.5 100 211t317 82.5q85 0 161 -11v86q0 136 -44.5 193t-120.5 57t-123 -49t-47 -133q-78 -8 -130 24t-52 99q0 94 98.5 155t253.5 61q405 0 404 -393v-524l129 -17q0 -118 -153.5 -118t-198.5 103q-124 -102 -273.5 -102.5t-235 73.5t-85.5 202.5z M144 1142l273 248q80 17 149 0l265 -248q-33 -52 -72 -74l-271 168l-276 -168q-43 25 -68 74zM309 268q0 -137 141 -138q100 0 187 57v194q-71 26 -148.5 26t-128.5 -36.5t-51 -102.5z" />
<glyph unicode="&#xe3;" horiz-adv-x="1024" d="M59 246.5q0 128.5 100 211t317 82.5q85 0 161 -11v86q0 136 -44.5 193t-120.5 57t-123 -49t-47 -133q-78 -8 -130 24t-52 99q0 94 98.5 155t253.5 61q405 0 404 -393v-524l129 -17q0 -118 -153.5 -118t-198.5 103q-124 -102 -273.5 -102.5t-235 73.5t-85.5 202.5z M154 1144q15 113 70 182.5t127.5 69.5t154.5 -58t133 -58t85.5 27.5t44.5 72.5l62 -18q-32 -257 -218 -257q-78 0 -164.5 51t-122 51t-65 -23.5t-41.5 -63.5zM309 268q0 -137 141 -138q100 0 187 57v194q-71 26 -148.5 26t-128.5 -36.5t-51 -102.5z" />
<glyph unicode="&#xe4;" horiz-adv-x="1024" d="M59 246.5q0 128.5 100 211t317 82.5q85 0 161 -11v86q0 136 -44.5 193t-120.5 57t-123 -49t-47 -133q-78 -8 -130 24t-52 99q0 94 98.5 155t253.5 61q405 0 404 -393v-524l129 -17q0 -118 -153.5 -118t-198.5 103q-124 -102 -273.5 -102.5t-235 73.5t-85.5 202.5z M152 1266.5q0 56.5 41 97t98 40.5t97 -40.5t40 -97t-40 -97t-97 -40.5t-98 40.5t-41 97zM309 268q0 -137 141 -138q100 0 187 57v194q-71 26 -148.5 26t-128.5 -36.5t-51 -102.5zM527 1265.5q0 55.5 41.5 97t98.5 41.5t97 -40.5t40 -97t-40 -97t-98 -40.5t-98.5 40.5 t-40.5 96z" />
<glyph unicode="&#xe5;" horiz-adv-x="1024" d="M59 246.5q0 128.5 100 211t317 82.5q85 0 161 -11v86q0 136 -44.5 193t-120.5 57t-123 -49t-47 -133q-78 -8 -130 24t-52 99q0 94 98.5 155t253.5 61q405 0 404 -393v-524l129 -17q0 -118 -153.5 -118t-198.5 103q-124 -102 -273.5 -102.5t-235 73.5t-85.5 202.5z M306 1252.5q0 80.5 52.5 130.5t138 50t136 -48t48.5 -128.5t-54.5 -131t-136 -50.5t-134 48.5t-50.5 129zM309 268q0 -137 141 -138q100 0 187 57v194q-71 26 -148.5 26t-128.5 -36.5t-51 -102.5zM411 1254.5q0 -39.5 22.5 -62t60 -22.5t61 22.5t23.5 61t-22.5 61t-61 22.5 t-61 -21.5t-22.5 -61z" />
<glyph unicode="&#xe6;" horiz-adv-x="1544" d="M59 246.5q0 128.5 100 211t319 82.5q83 0 159 -11v86q0 250 -168 250q-80 0 -123.5 -51t-43.5 -131q-80 -8 -131 24t-51 99q0 94 98.5 155t255.5 61q216 0 318 -118q120 118 316 118t288 -120t88 -309v-111h-597v-22q0 -160 56.5 -237t202.5 -77t280 107q39 -29 39 -91 t-109.5 -127t-272.5 -65q-238 0 -353 154q-154 -154 -362 -154q-140 0 -224.5 74t-84.5 202.5zM309 259q0 -129 147 -129q96 0 181 57v194q-71 26 -148.5 26t-128.5 -36.5t-51 -111.5zM897 617h358q-8 248 -163 248q-162 0 -195 -248z" />
<glyph unicode="&#xe7;" horiz-adv-x="927" d="M69 493.5q0 234.5 133.5 381.5t356.5 147q141 0 230 -60t89 -152t-54.5 -129.5t-115.5 -29.5q-2 84 -45.5 147t-139 63t-150 -91t-54.5 -256q0 -366 281 -366q132 0 252 105q19 -11 31 -38.5t12 -47.5q0 -59 -102.5 -122.5t-240.5 -72.5l-15 -62q82 0 123.5 -43.5 t41.5 -108t-55.5 -113t-146.5 -48.5t-142 55q-2 23 6 49.5t17 33.5q36 -30 99.5 -30t63.5 59q0 33 -27 50t-108 17l37 143q-178 22 -277.5 153.5t-99.5 366z" />
<glyph unicode="&#xe8;" horiz-adv-x="976" d="M69 475q0 255 127 401t348 146q189 0 282.5 -118t89.5 -311v-111h-597v-22q0 -160 58 -237t200.5 -77t279.5 107q40 -29 40 -91t-109 -127t-272 -65q-213 0 -330 125t-117 380zM246 1302q17 35 66.5 79.5t94.5 53.5l328 -270q-22 -49 -82 -80zM328 617h358 q-3 134 -44.5 191t-118.5 57q-161 0 -195 -248z" />
<glyph unicode="&#xe9;" horiz-adv-x="976" d="M69 475q0 255 127 401t348 146q189 0 282.5 -118t89.5 -311v-111h-597v-22q0 -160 58 -237t200.5 -77t279.5 107q40 -29 40 -91t-109 -127t-272 -65q-213 0 -330 125t-117 380zM328 617h358q-3 134 -44.5 191t-118.5 57q-161 0 -195 -248zM383 1165l328 270 q45 -9 94.5 -53.5t67.5 -79.5l-407 -217q-61 31 -83 80z" />
<glyph unicode="&#xea;" horiz-adv-x="976" d="M69 475q0 255 127 401t348 146q189 0 282.5 -118t89.5 -311v-111h-597v-22q0 -160 58 -237t200.5 -77t279.5 107q40 -29 40 -91t-109 -127t-272 -65q-213 0 -330 125t-117 380zM201 1142l273 248q81 17 149 0l266 -248q-34 -52 -73 -74l-272 168l-274 -168q-43 25 -69 74 zM328 617h358q-3 134 -44.5 191t-118.5 57q-161 0 -195 -248z" />
<glyph unicode="&#xeb;" horiz-adv-x="976" d="M69 475q0 255 127 401t348 146q189 0 282.5 -118t89.5 -311v-111h-597v-22q0 -160 58 -237t200.5 -77t279.5 107q40 -29 40 -91t-109 -127t-272 -65q-213 0 -330 125t-117 380zM208 1266.5q0 56.5 41.5 97t98.5 40.5t97.5 -40.5t40.5 -97t-40.5 -97t-97.5 -40.5 t-98.5 40.5t-41.5 97zM328 617h358q-3 134 -44.5 191t-118.5 57q-161 0 -195 -248zM584 1265.5q0 55.5 40 97t98 41.5t98.5 -40.5t40.5 -97t-40.5 -97t-98.5 -40.5t-98 40.5t-40 96z" />
<glyph unicode="&#xec;" horiz-adv-x="626" d="M17 1302q18 35 67 79.5t95 53.5l328 -270q-22 -49 -83 -80zM60 979l390 43v-883l139 -11q12 -128 -88 -128h-438v15q0 109 87 117l60 3v715l-77 7q-80 8 -73 122z" />
<glyph unicode="&#xed;" horiz-adv-x="626" d="M60 979l390 43v-883l139 -11q12 -128 -88 -128h-438v15q0 109 87 117l60 3v715l-77 7q-80 8 -73 122zM156 1165l328 270q45 -9 94.5 -53.5t66.5 -79.5l-407 -217q-60 31 -82 80z" />
<glyph unicode="&#xee;" horiz-adv-x="626" d="M-28 1142l274 248q80 17 150 0l264 -248q-33 -52 -72 -74l-271 168l-276 -168q-43 25 -69 74zM60 979l390 43v-883l139 -11q12 -128 -88 -128h-438v15q0 109 87 117l60 3v715l-77 7q-80 8 -73 122z" />
<glyph unicode="&#xef;" horiz-adv-x="626" d="M-19 1266.5q0 56.5 41 97t98 40.5t97 -40.5t40 -97t-40 -97t-97 -40.5t-98 40.5t-41 97zM60 979l390 43v-883l139 -11q12 -128 -88 -128h-438v15q0 109 87 117l60 3v715l-77 7q-80 8 -73 122zM356 1265.5q0 55.5 40.5 97t98 41.5t98 -40.5t40.5 -97t-40.5 -97t-98 -40.5 t-98 40.5t-40.5 96z" />
<glyph unicode="&#xf0;" horiz-adv-x="1094" d="M68 425.5q-3 215.5 124 367t369 151.5q82 0 150 -21q-52 118 -148 199l-193 -129l-64 112l144 92q-94 49 -212 71l66 120q158 -24 294 -94l161 104l63 -100l-109 -73q313 -225 313 -641q0 -280 -137.5 -447t-374.5 -167q-203 0 -323 120t-123 335.5zM319 450 q0 -151 52 -230t146 -79q122 0 191 121t69 326q0 52 -6 104q-100 92 -225 92q-228 0 -227 -334z" />
<glyph unicode="&#xf1;" horiz-adv-x="1275" d="M60 968l357 43l14 -120h6q73 63 140.5 97t159.5 34q152 0 257 -101t105 -311v-471l139 -11q12 -128 -88 -128h-435v15q0 109 88 117l56 3v484q0 114 -45 160.5t-125.5 46.5t-132 -22t-106.5 -69v-596l139 -11q12 -128 -88 -128h-438v15q0 109 87 117l60 3v702l-77 9 q-80 7 -73 122zM342 1144q16 113 71 182.5t127.5 69.5t154.5 -58t132.5 -58t85.5 27.5t44 72.5l63 -18q-33 -257 -217 -257q-79 0 -166 51t-122 51t-65 -23.5t-41 -63.5z" />
<glyph unicode="&#xf2;" horiz-adv-x="1065" d="M69 481q0 251 125 396t347 145t338.5 -139.5t116.5 -386t-125.5 -386.5t-350.5 -140t-338 130t-113 381zM242 1302q17 35 66.5 79.5t94.5 53.5l329 -270q-23 -49 -83 -80zM319 490.5q0 -175.5 56 -273t158.5 -97.5t158 95.5t55.5 271t-55.5 280t-158 104.5t-158.5 -102.5 t-56 -278z" />
<glyph unicode="&#xf3;" horiz-adv-x="1065" d="M69 481q0 251 125 396t347 145t338.5 -139.5t116.5 -386t-125.5 -386.5t-350.5 -140t-338 130t-113 381zM319 490.5q0 -175.5 56 -273t158.5 -97.5t158 95.5t55.5 271t-55.5 280t-158 104.5t-158.5 -102.5t-56 -278zM379 1165l329 270q45 -9 94.5 -53.5t66.5 -79.5 l-407 -217q-61 31 -83 80z" />
<glyph unicode="&#xf4;" horiz-adv-x="1065" d="M69 481q0 251 125 396t347 145t338.5 -139.5t116.5 -386t-125.5 -386.5t-350.5 -140t-338 130t-113 381zM197 1142l272 248q81 17 150 0l266 -248q-33 -52 -73 -74l-272 168l-275 -168q-43 25 -68 74zM319 490.5q0 -175.5 56 -273t158.5 -97.5t158 95.5t55.5 271 t-55.5 280t-158 104.5t-158.5 -102.5t-56 -278z" />
<glyph unicode="&#xf5;" horiz-adv-x="1065" d="M69 481q0 251 125 396t347 145t338.5 -139.5t116.5 -386t-125.5 -386.5t-350.5 -140t-338 130t-113 381zM206 1144q16 113 71 182.5t128 69.5t154.5 -58t132.5 -58t85.5 27.5t44.5 72.5l63 -18q-33 -257 -219 -257q-78 0 -164.5 51t-122 51t-65 -23.5t-40.5 -63.5z M319 490.5q0 -175.5 56 -273t158.5 -97.5t158 95.5t55.5 271t-55.5 280t-158 104.5t-158.5 -102.5t-56 -278z" />
<glyph unicode="&#xf6;" horiz-adv-x="1065" d="M69 481q0 251 125 396t347 145t338.5 -139.5t116.5 -386t-125.5 -386.5t-350.5 -140t-338 130t-113 381zM204 1266.5q0 56.5 41.5 97t98.5 40.5t97.5 -40.5t40.5 -97t-40.5 -97t-97.5 -40.5t-98.5 40.5t-41.5 97zM319 490.5q0 -175.5 56 -273t158.5 -97.5t158 95.5 t55.5 271t-55.5 280t-158 104.5t-158.5 -102.5t-56 -278zM580 1265.5q0 55.5 40 97t98.5 41.5t98.5 -40.5t40 -97t-40 -97t-98.5 -40.5t-98.5 40.5t-40 96z" />
<glyph unicode="&#xf7;" horiz-adv-x="998" d="M98 448v158h802v-158h-802zM348 181q0 65 45.5 110t110 45t110 -45t45.5 -110t-45.5 -110t-110 -45t-110 45t-45.5 110zM348 873q0 65 45.5 110t110 45t110 -45t45.5 -110t-45.5 -110t-110 -45t-110 45t-45.5 110z" />
<glyph unicode="&#xf8;" horiz-adv-x="1055" d="M69 469q0 263 125 408t361 145q100 0 175 -31l31 55l139 -71l-41 -71q137 -137 137 -395.5t-125.5 -398.5t-361.5 -140q-94 0 -173 28l-23 -43l-138 75l28 49q-134 127 -134 390zM319 525.5q0 -140.5 19 -212.5l301 520q-48 38 -106 38q-102 0 -158 -102.5t-56 -243z M426 154q46 -34 107 -34q102 0 158 95.5t56 233t-21 223.5z" />
<glyph unicode="&#xf9;" horiz-adv-x="1180" d="M19 853v16q0 124 88 124h296v-620q0 -121 47 -172t145.5 -51t186.5 66v637h-153v16q0 124 86 124h307v-861h44q67 -2 67 -124l-280 -27l-41 109q-139 -120 -288 -120t-255 101.5t-106 311.5v470h-144zM274 1302q17 35 66.5 79.5t94.5 53.5l328 -270q-22 -49 -82 -80z" />
<glyph unicode="&#xfa;" horiz-adv-x="1180" d="M19 853v16q0 124 88 124h296v-620q0 -121 47 -172t145.5 -51t186.5 66v637h-153v16q0 124 86 124h307v-861h44q67 -2 67 -124l-280 -27l-41 109q-139 -120 -288 -120t-255 101.5t-106 311.5v470h-144zM411 1165l328 270q45 -9 94.5 -53.5t66.5 -79.5l-407 -217 q-60 31 -82 80z" />
<glyph unicode="&#xfb;" horiz-adv-x="1180" d="M19 853v16q0 124 88 124h296v-620q0 -121 47 -172t145.5 -51t186.5 66v637h-153v16q0 124 86 124h307v-861h44q67 -2 67 -124l-280 -27l-41 109q-139 -120 -288 -120t-255 101.5t-106 311.5v470h-144zM228 1142l273 248q81 17 150 0l265 -248q-34 -52 -72 -74l-272 168 l-275 -168q-44 25 -69 74z" />
<glyph unicode="&#xfc;" horiz-adv-x="1180" d="M19 853v16q0 124 88 124h296v-620q0 -121 47 -172t145.5 -51t186.5 66v637h-153v16q0 124 86 124h307v-861h44q67 -2 67 -124l-280 -27l-41 109q-139 -120 -288 -120t-255 101.5t-106 311.5v470h-144zM236 1266.5q0 56.5 41.5 97t98.5 40.5t97.5 -40.5t40.5 -97 t-40.5 -97t-97.5 -40.5t-98.5 40.5t-41.5 97zM612 1265.5q0 55.5 40 97t98 41.5t98.5 -40.5t40.5 -97t-40.5 -97t-98.5 -40.5t-98 40.5t-40 96z" />
<glyph unicode="&#xfd;" horiz-adv-x="1053" d="M2 865q-6 11 2 53q17 75 86 75h407q-5 -73 -17 -91q-30 -33 -69 -41l-21 -4l198 -491l189 489l-93 10q-11 128 89 128h281v-16q0 -101 -86 -116l-9 -2l-326 -792h3q-10 -22 -36 -83t-37 -85.5t-36.5 -77.5t-41.5 -77.5t-41 -64t-48 -58t-52 -40.5q-53 -39 -133.5 -39 t-129.5 41.5t-49 101.5t35 96.5t78.5 36.5t53.5 -5q-22 -105 45 -104q56 0 120 123t104 251l-348 770h-10zM424 1165l329 270q45 -9 94.5 -53.5t66.5 -79.5l-407 -217q-61 31 -83 80z" />
<glyph unicode="&#xfe;" horiz-adv-x="1153" d="M24 -413q0 109 86 116l61 4v1522l-85 9q-60 8 -60 118l385 46v-479q120 99 279.5 99t275 -115t120 -366.5t-121 -411t-366.5 -159.5q-108 0 -187 34v-293h2l137 -11q12 -128 -88 -128h-438v15zM411 208q94 -78 202 -78q222 0 222 367q0 169 -57.5 262t-164 93t-202.5 -89 v-555z" />
<glyph unicode="&#xff;" horiz-adv-x="1053" d="M2 865q-6 11 2 53q17 75 86 75h407q-5 -73 -17 -91q-30 -33 -69 -41l-21 -4l198 -491l189 489l-93 10q-11 128 89 128h281v-16q0 -101 -86 -116l-9 -2l-326 -792h3q-10 -22 -36 -83t-37 -85.5t-36.5 -77.5t-41.5 -77.5t-41 -64t-48 -58t-52 -40.5q-53 -39 -133.5 -39 t-129.5 41.5t-49 101.5t35 96.5t78.5 36.5t53.5 -5q-22 -105 45 -104q56 0 120 123t104 251l-348 770h-10zM250 1266.5q0 56.5 41 97t98 40.5t97.5 -40.5t40.5 -97t-40.5 -97t-97.5 -40.5t-98 40.5t-41 97zM625 1265.5q0 55.5 41.5 97t98.5 41.5t97 -40.5t40 -97t-40 -97 t-98 -40.5t-98.5 40.5t-40.5 96z" />
<glyph unicode="&#x152;" horiz-adv-x="1816" d="M69 664.5q0 316.5 162.5 514.5t476.5 198q118 0 210 -30h800v-297q0 -88 -125 -77l-19 232l-418 7v-488l352 41q22 -94 2 -195l-354 19v-450l460 17l16 241q126 12 126 -76v-321h-899q-96 -30 -216 -30q-263 0 -418.5 189t-155.5 505.5zM324 674.5q0 -265.5 67 -405 t277 -143.5q160 2 242 94v924q-82 77 -233 77q-191 0 -272 -140.5t-81 -406z" />
<glyph unicode="&#x153;" horiz-adv-x="1656" d="M69 481q0 251 125 396t361 145q201 0 326 -151q132 151 332.5 151t293.5 -118t89 -311v-111h-598v-22q0 -160 58.5 -237t201 -77t280.5 107q39 -29 38.5 -91t-109.5 -127t-272 -65q-208 0 -334 140q-135 -139 -350.5 -139.5t-328.5 129.5t-113 381zM319 490.5 q0 -175.5 56 -273t158.5 -97.5t158 95.5t55.5 271t-55.5 280t-158 104.5t-158.5 -102.5t-56 -278zM1009 617h357q-4 134 -45 191t-118 57q-161 0 -194 -248z" />
<glyph unicode="&#x178;" horiz-adv-x="1248" d="M2 1219q-6 12 2 53q17 75 86 75h476q-3 -77 -18 -94q-26 -34 -68 -38l-63 -3h-4l266 -479l259 474l-154 12q-5 12 2 53q18 75 87 75h373v-16q0 -109 -86 -116l-49 -3l-364 -646v-427h2l140 -11q11 -128 -88 -128h-443v15q0 109 86 117l57 3v424l-373 648zM321 1620 q0 57 41 97.5t98 40.5t97.5 -40.5t40.5 -97.5t-40.5 -97.5t-97.5 -40.5t-98 40.5t-41 97.5zM696 1619q0 56 41.5 97.5t98.5 41.5t97 -40.5t40 -97.5t-40 -97.5t-98 -40.5t-98.5 40.5t-40.5 96.5z" />
<glyph unicode="&#x2c6;" horiz-adv-x="1178" d="M185 1142l273 248q81 17 150 0l265 -248q-34 -52 -72 -74l-272 168l-276 -168q-43 25 -68 74z" />
<glyph unicode="&#x2dc;" horiz-adv-x="983" d="M159 1144q16 113 71 182.5t128 69.5t154 -58t132.5 -58t86 27.5t44.5 72.5l62 -18q-33 -257 -218 -257q-79 0 -165 51t-121.5 51t-65 -23.5t-40.5 -63.5z" />
<glyph unicode="&#x2000;" horiz-adv-x="894" />
<glyph unicode="&#x2001;" horiz-adv-x="1789" />
<glyph unicode="&#x2002;" horiz-adv-x="894" />
<glyph unicode="&#x2003;" horiz-adv-x="1789" />
<glyph unicode="&#x2004;" horiz-adv-x="596" />
<glyph unicode="&#x2005;" horiz-adv-x="447" />
<glyph unicode="&#x2006;" horiz-adv-x="298" />
<glyph unicode="&#x2007;" horiz-adv-x="298" />
<glyph unicode="&#x2008;" horiz-adv-x="223" />
<glyph unicode="&#x2009;" horiz-adv-x="357" />
<glyph unicode="&#x200a;" horiz-adv-x="99" />
<glyph unicode="&#x2010;" horiz-adv-x="795" d="M79 437v176h639v-176h-639z" />
<glyph unicode="&#x2011;" horiz-adv-x="795" d="M79 437v176h639v-176h-639z" />
<glyph unicode="&#x2012;" horiz-adv-x="795" d="M79 437v176h639v-176h-639z" />
<glyph unicode="&#x2013;" horiz-adv-x="1045" d="M79 460v157h889v-157h-889z" />
<glyph unicode="&#x2014;" horiz-adv-x="1660" d="M79 462v157h1504v-157h-1504z" />
<glyph unicode="&#x2018;" horiz-adv-x="503" d="M98 999q0 91 77.5 207.5t162.5 151.5q11 8 35 -12.5t24 -34.5q-86 -60 -123 -184q60 -9 95.5 -50t35.5 -106t-41 -107t-111.5 -42t-112.5 43t-42 134z" />
<glyph unicode="&#x2019;" horiz-adv-x="503" d="M98 1211q0 65 41 107t111.5 42t112.5 -43t42 -133.5t-77.5 -207.5t-162.5 -152q-11 -8 -34.5 12.5t-23.5 34.5q86 60 123 185q-60 8 -96 49t-36 106z" />
<glyph unicode="&#x201a;" horiz-adv-x="503" d="M98 128q0 65 41 107t111.5 42t112.5 -43t42 -133.5t-77.5 -207.5t-162.5 -152q-11 -8 -34.5 12t-23.5 35q86 60 123 184q-60 8 -96 49.5t-36 106.5z" />
<glyph unicode="&#x201c;" horiz-adv-x="850" d="M98 999q0 91 77.5 207.5t162.5 151.5q11 8 35 -12.5t24 -34.5q-86 -60 -123 -184q60 -9 95.5 -50t35.5 -106t-41 -107t-111.5 -42t-112.5 43t-42 134zM446 999q0 91 78 207.5t162 151.5q12 8 35.5 -12.5t23.5 -34.5q-86 -60 -124 -184q62 -9 97 -50t35 -106t-41.5 -107 t-111 -42t-112 43t-42.5 134z" />
<glyph unicode="&#x201d;" horiz-adv-x="850" d="M98 1211q0 65 41 107t111.5 42t112.5 -43t42 -133.5t-77.5 -207.5t-162.5 -152q-11 -8 -34.5 12.5t-23.5 34.5q86 60 123 185q-60 8 -96 49t-36 106zM446 1211q0 65 41.5 107t111 42t112 -43t42.5 -133.5t-77.5 -207.5t-161.5 -152q-12 -8 -36 12.5t-24 34.5 q86 60 124 185q-61 8 -96.5 49t-35.5 106z" />
<glyph unicode="&#x201e;" horiz-adv-x="850" d="M98 130q0 65 41 107t111.5 42t112.5 -43t42 -133.5t-77.5 -207.5t-162.5 -152q-11 -8 -34.5 12.5t-23.5 34.5q86 60 123 184q-60 8 -96 49.5t-36 106.5zM446 130q0 65 41.5 107t111 42t112 -43t42.5 -133.5t-77.5 -207.5t-161.5 -152q-12 -8 -36 12.5t-24 34.5 q86 60 124 184q-61 8 -96.5 49.5t-35.5 106.5z" />
<glyph unicode="&#x2022;" horiz-adv-x="955" d="M236 728q0 101 70.5 172.5t172 71.5t171.5 -71.5t70 -173.5t-69 -170.5t-171.5 -68.5t-173 69.5t-70.5 170.5z" />
<glyph unicode="&#x2026;" horiz-adv-x="1966" d="M167 125.5q0 65.5 45 110.5t110 45t110.5 -45t45.5 -110.5t-45.5 -110.5t-110.5 -45t-110 45t-45 110.5zM806 125.5q0 65.5 45.5 110.5t110 45t109.5 -45t45 -110.5t-45 -110.5t-109.5 -45t-110 45t-45.5 110.5zM1445 125.5q0 65.5 45 110.5t110.5 45t110.5 -45 t45 -110.5t-45 -110.5t-110.5 -45t-110.5 45t-45 110.5z" />
<glyph unicode="&#x202f;" horiz-adv-x="357" />
<glyph unicode="&#x2039;" horiz-adv-x="728" d="M86 437q-17 58 0 115l480 414l113 -99l-315 -364v-17l326 -364l-124 -98z" />
<glyph unicode="&#x203a;" horiz-adv-x="728" d="M39 122l327 364v17l-315 364l112 99l480 -414q17 -57 0 -115l-480 -413z" />
<glyph unicode="&#x205f;" horiz-adv-x="447" />
<glyph unicode="&#x20ac;" horiz-adv-x="1067" d="M63 405v132h104q-2 15 -2 48.5t2 51.5h-104v132h117q42 220 177 344.5t337 124.5q148 0 238 -62.5t90 -162.5q0 -71 -47 -111.5t-127 -40.5q0 102 -48.5 164.5t-140 62.5t-160 -85t-94.5 -234h336v-132h-347v-27q0 -49 2 -73h345v-132h-326q67 -279 298 -279 q122 0 268 106q28 -17 28 -61q0 -87 -108.5 -145t-249.5 -58q-195 0 -314 118t-157 319h-117z" />
<glyph unicode="&#x2122;" horiz-adv-x="1559" d="M98 1199v148h559v-148q0 -37 -85 -37l-8 98h-102v-432l80 -4q0 -77 -39 -77h-293q4 51 14 65t26 14l43 2v432h-104l-9 -98q-82 0 -82 37zM649 747q0 77 37 79l53 3l34 433l-89 6q0 79 40 79h192l140 -319l124 319h208q28 0 35.5 -31.5t4.5 -47.5l-87 -6l34 -433l86 -5 q0 -77 -39 -77h-257q0 77 38 79l35 2l-25 346l-134 -332q-53 -12 -90 -5l-130 290l-20 -298l75 -5q4 -16 -4 -46.5t-35 -30.5h-226z" />
<glyph unicode="&#x25fc;" horiz-adv-x="992" d="M0 0v993h993v-993h-993z" />
<glyph unicode="&#xfb01;" horiz-adv-x="1246" d="M59 0v15q0 109 87 117l57 3v720h-140q0 138 98 138h42v33q-2 186 108.5 295.5t270.5 113.5q82 2 135.5 -31.5t53.5 -101t-43.5 -99t-112.5 -31.5q0 126 -65 126q-108 0 -107 -244v-61h202q4 -30 -6 -67q-17 -71 -91 -71h-104v-716l199 -11q6 -12 -2 -53q-17 -75 -86 -75 h-496zM681 979l388 43v-883l141 -11q5 -12 -3 -53q-18 -75 -87 -75h-437v15q0 109 86 117l60 3v715l-76 7q-81 8 -72 122zM788 1256q0 61 42.5 103.5t103.5 42.5t103 -42.5t42 -103.5t-42 -103t-103 -42t-103.5 42t-42.5 103z" />
<glyph unicode="&#xfb02;" horiz-adv-x="1246" d="M59 0v15q0 109 87 117l57 3v720h-140q0 138 96 138h44v53q0 166 105 276.5t263.5 113.5t208.5 -61l289 30v-1266l141 -11q5 -12 -3 -53q-18 -75 -87 -75h-437v15q0 109 86 117l60 3v1098l-43 3q-37 -65 -139 -64q0 126 -97 126q-108 0 -107 -244v-61h253 q10 -138 -92 -138h-161v-716h1l199 -11q6 -12 -2 -53q-17 -75 -86 -75h-496z" />
<glyph unicode="&#xfb03;" horiz-adv-x="1872" d="M60 0v15q0 109 88 117l56 3v720h-139q0 138 96 138h43v53q0 166 105.5 276.5t274.5 112.5q220 4 220 -133q0 -67 -43 -98.5t-112 -31.5q0 126 -97 126q-108 0 -108 -244v-61h385v33q-1 186 110 295.5t271 113.5q82 2 135 -31.5t53 -101t-43.5 -99t-112.5 -31.5 q0 126 -64 126q-109 0 -109 -244v-61h203q4 -30 -6 -67q-17 -71 -90 -71h-107v-716l201 -11q12 -128 -88 -128h-496v15q0 109 87 117l56 3v720h-385v-716h2l199 -11q12 -128 -88 -128h-497zM1308 979l388 43v-883l140 -11q12 -128 -88 -128h-439v15q0 109 87 117l61 3v715 l-77 7q-80 8 -72 122zM1416 1256q0 61 42 103.5t103 42.5t103.5 -42.5t42.5 -103.5t-41.5 -103t-103.5 -42t-104 42t-42 103z" />
<glyph unicode="&#xfb04;" horiz-adv-x="1874" d="M59 0v15q0 109 87 117l57 3v720h-140q0 138 96 138h44v53q0 166 105 276.5t274 112.5q220 4 221 -133q0 -67 -44 -98.5t-112 -31.5q0 126 -97 126q-108 0 -107 -244v-61h388v53q0 166 105.5 276.5t263.5 113.5t209 -61l289 30v-1266l140 -11q6 -12 -2 -53 q-17 -75 -86 -75h-439v15q0 109 87 117l61 3v1098l-43 3q-37 -65 -140 -64q0 126 -96 126q-109 0 -109 -244v-61h254q9 -138 -92 -138h-162v-716h2l199 -11q6 -12 -2 -53q-17 -75 -86 -75h-496v15q0 109 87 117l56 3v720h-388v-716h1l199 -11q6 -12 -2 -53q-17 -75 -86 -75 h-496z" />
</font>
</defs>
</svg>
