<?xml version="1.0"?>
<svg xmlns="http://www.w3.org/2000/svg" xmlns:xlink="http://www.w3.org/1999/xlink" height="0" width="0">
  <defs>
    <symbol id="icon-angle-left" viewBox="0 0 5 14">
      <path d="M4.9 4.25c-.06.25-.3.38-.46.56l-2.7 2.7c1.04 1.05 2.1 2.08 3.1 3.1.17.3-.2.47-.34.66-.3.38-.6-.12-.82-.32l-3.3-3.3c-.13-.22.15-.4.3-.55C1.8 5.92 2.95 4.77 4.1 3.64c.35-.15.6.32.78.53l.02.07z"/>
    </symbol>
    <symbol id="icon-angle-right" viewBox="0 0 5 14">
      <path d="M4.65 7.5c-.03.2-.24.3-.36.46L.92 11.32c-.17.18-.38 0-.5-.14-.12-.15-.35-.26-.33-.48.1-.2.3-.32.44-.5l2.7-2.7-3.1-3.1C0 4.17.24 4 .37 3.87c.14-.12.26-.35.47-.26.25.2.46.44.7.66 1 1.03 2.05 2.05 3.06 3.08.03.04.05.1.05.14z"/>
    </symbol>
    <symbol id="icon-ban" viewBox="0 0 12 14">
      <path d="M10.25 6.98c0-.82-.23-1.63-.68-2.3-1.96 1.95-3.93 3.9-5.9 5.88 1.48 1 3.58.9 4.96-.23 1.02-.8 1.62-2.07 1.62-3.35zM2.45 9.3c1.96-1.95 3.93-3.9 5.9-5.88-1.6-1.1-3.94-.9-5.3.5-1.4 1.3-1.7 3.56-.73 5.2l.13.2zM12 7c.02 2.35-1.47 4.66-3.67 5.54-2 .88-4.42.52-6.1-.85C.27 10.1-.53 7.27.37 4.92c.6-1.7 2-3.08 3.72-3.64 2.4-.87 5.33.08 6.78 2.2C11.6 4.5 12 5.73 12 6.98z"/>
    </symbol>
    <symbol id="icon-calendar-o" viewBox="0 0 13 14">
      <path d="M1 13h11V5H1v8zm3-9.5c0-.78.02-1.57-.02-2.35-.2-.23-.64-.18-.9-.08-.15.34-.05.73-.08 1.1 0 .47-.02.95.02 1.43.2.23.64.18.9.08L4 3.6 4 3.5zm6 0c0-.78.02-1.57-.02-2.35-.2-.23-.64-.18-.9-.08-.15.34-.05.73-.08 1.1 0 .47-.02.95.02 1.43.2.23.64.18.9.08L10 3.6l.02-.1zm3-.5v10.1c-.05.62-.7 1-1.27.9H.9c-.62-.05-1-.7-.9-1.27V2.9c.05-.62.7-1 1.27-.9H2c0-.6-.1-1.3.46-1.72.46-.38 1.1-.3 1.66-.23.65.18.96.88.88 1.5 0 .24-.08.56.27.45H8c0-.6-.1-1.3.46-1.72.46-.38 1.1-.3 1.66-.23.65.18.96.88.88 1.5 0 .24-.08.56.27.45.52.02 1.14-.1 1.5.37.15.18.23.4.23.63z"/>
    </symbol>
    <symbol id="icon-check" viewBox="0 0 14 14">
      <path d="M13.05 4.42c0 .5-.47.74-.75 1.07L6.06 11.7c-.34.3-.88.17-1.13-.18L1.1 7.72c-.3-.34-.16-.87.2-1.13.37-.36.7-.76 1.1-1.08.38-.2.82 0 1.06.3.7.72 1.42 1.43 2.13 2.14 1.7-1.73 3.43-3.46 5.17-5.18.34-.3.88-.17 1.13.18.35.37.76.7 1.07 1.1.06.12.08.24.1.36z"/>
    </symbol>
    <symbol id="icon-comments-o" viewBox="0 0 14 14">
      <path d="M5.5 3c-1.55 0-3.25.53-4.15 1.86-.58.82-.4 1.97.3 2.66.45.53 1.1.83 1.7 1.18l-.3.66c.32-.15.58-.4.88-.54 1.8.4 3.9.15 5.3-1.16.74-.66 1.03-1.84.48-2.7C8.85 3.55 7.08 3 5.5 3zm0-1c1.84 0 3.84.66 4.94 2.23.85 1.15.7 2.85-.27 3.9-1.33 1.5-3.5 2.02-5.44 1.83-.53-.22-.92.12-1.36.38-.7.33-1.43.63-2.2.64-.46-.32.2-.7.38-.97.3-.38.82-.97.07-1.16C.48 8.04-.3 6.6.1 5.2c.48-1.65 2.1-2.64 3.7-3 .56-.14 1.13-.2 1.7-.2zm6.42 9.13c.2.6.7 1 1.06 1.5.05.63-.8.26-1.16.18-.7-.2-1.36-.5-1.95-.92-1.7.3-3.58.07-5.06-.9 2.27.18 4.74-.53 6.22-2.32.88-1.05 1.22-2.54.8-3.85 1.27.68 2.36 2.04 2.16 3.55-.13 1.2-1.04 2.2-2.06 2.78z"/>
    </symbol>
    <symbol id="icon-comments" viewBox="0 0 14 14">
      <path d="M11 6c0 1.6-1.27 2.85-2.66 3.43-1.32.58-2.8.7-4.2.45-.86.6-1.85 1-2.88 1.12-.57-.17-.03-.7.2-.9.32-.4.96-1.04.16-1.26C.48 8.04-.3 6.6.1 5.2c.48-1.65 2.1-2.64 3.7-3 2.08-.47 4.46-.1 6.07 1.36C10.54 4.2 11 5.06 11 6zm3 2c.02 1.35-.95 2.5-2.08 3.13.2.6.7 1 1.06 1.5.05.63-.8.26-1.16.18-.7-.2-1.36-.5-1.95-.92-1.7.3-3.58.07-5.06-.9 2.27.18 4.74-.53 6.22-2.32.88-1.05 1.22-2.54.8-3.85C13 5.45 14.02 6.63 14 8z"/>
    </symbol>
    <symbol id="icon-creative-commons" viewBox="0 0 14 14">
      <path d="M4.73 9.63c.75 0 1.77-.28 2.06-1.02-.15-.26-.28-.54-.46-.8-.64.08-1.3.92-2.1.48-1.07-.4-1.1-2.15 0-2.56.65-.32 1.26.12 1.8.42.3-.12.4-.48.6-.72.05-.66-.95-.9-1.5-1.03-1.3-.25-2.74.6-3.03 1.93-.32 1.24.33 2.67 1.56 3.1.34.15.7.2 1.07.2zm4.92 0c.75 0 1.76-.28 2.06-1.02-.13-.26-.25-.55-.44-.8-.64.1-1.3.9-2.1.48-1.07-.4-1.1-2.15 0-2.56.65-.32 1.26.12 1.8.42.3-.12.4-.48.6-.72.06-.66-.95-.9-1.5-1.03-1.34-.26-2.83.67-3.05 2.06-.27 1.25.45 2.65 1.7 3.03.3.1.63.13.95.13zM7 1.25c-2.46-.03-4.8 1.7-5.5 4.05-.83 2.53.4 5.52 2.75 6.74 2.12 1.22 4.98.82 6.72-.88 1.8-1.7 2.32-4.6 1.14-6.78-.93-1.9-3-3.15-5.1-3.13zM7 0c2.72-.03 5.36 1.68 6.4 4.2 1.1 2.36.65 5.28-1 7.26-1.78 2.2-4.96 3.12-7.63 2.17-2.02-.66-3.7-2.3-4.37-4.32-.98-2.65-.1-5.84 2.07-7.64C3.73.6 5.37 0 7 0z"/>
    </symbol>
    <symbol id="icon-envelope" viewBox="0 0 14 14">
      <path d="M14 5.55v6.33c-.05.7-.78 1.2-1.46 1.12H1.12c-.7-.05-1.2-.78-1.12-1.46v-6c.73.77 1.7 1.25 2.52 1.87 1.06.7 2.05 1.5 3.1 2.17.68.4 1.52.6 2.25.24C8.9 9.4 9.7 8.6 10.6 8c1-.7 2.06-1.35 3.04-2.1.12-.1.25-.23.36-.35zm0-2.3c0 1.1-.92 1.9-1.78 2.45-1.42.98-2.83 1.98-4.26 2.95-.56.45-1.36.45-1.92 0-1.6-1.1-3.2-2.23-4.82-3.34C.58 4.8-.12 4.04.02 3.14.07 2.45.7 1.9 1.4 2h11.47c.62.06 1.15.63 1.13 1.25z"/>
    </symbol>
    <symbol id="icon-exclamation-triangle" viewBox="0 0 14 14">
      <path d="M8 10.74c0-.53.02-1.06-.02-1.58-.2-.28-.6-.12-.88-.16-.34.03-.72-.08-1.03.07-.14.33-.04.72-.07 1.07.04.28-.1.65.16.84.52.04 1.06 0 1.6.02.13 0 .25-.12.24-.26zm-.02-2.92l.14-3.6c-.1-.35-.55-.18-.83-.22-.42 0-.84-.03-1.25.02-.3.17-.12.56-.15.84.05 1 .05 2.03.13 3.03.27.2.65.06.97.1.32-.04.7.1.96-.1L8 7.8h-.02zm-.1-7.3c2 3.7 4.05 7.4 6.05 11.13.32.7-.4 1.48-1.12 1.35H.88C.13 12.9-.27 11.96.2 11.4L6.12.5c.34-.7 1.42-.7 1.75 0z"/>
    </symbol>
    <symbol id="icon-eye-slash" viewBox="0 0 14 14">
      <path d="M4.34 10.43l.6-1.1c-1.42-1-1.88-3.1-.96-4.6C2.75 5.37 1.74 6.36 1 7.5c.8 1.26 1.96 2.32 3.34 2.93zM7.38 4.5c-.17-.7-1.17-.27-1.6-.04-.72.44-1.26 1.3-1.13 2.18.36.6.9-.07.77-.54.18-.73.9-1.27 1.66-1.23.17-.03.3-.2.3-.37zM10.2 3c-.4.85-.9 1.66-1.34 2.5L4.9 12.62c-.44.24-1.14-.3-1.4-.65.14-.4.56-.76-.07-.88C2.05 10.37.9 9.24.1 7.9c-.3-.54.1-1.08.44-1.5C2.04 4.4 4.44 2.96 7 3c.47-.08 1.08.2 1.46.04.15-.25.26-.54.46-.76.43 0 1.06.38 1.3.73zm.3 3.5c.02 1.42-.92 2.78-2.25 3.27l2.2-3.93c.03.22.05.44.05.66zm3.5 1c-.05.64-.58 1.1-.94 1.6C11.58 10.85 9.33 12.02 7 12l.58-1.03C9.82 10.8 11.8 9.37 13 7.5c-.58-.9-1.32-1.7-2.2-2.3.16-.3.32-.58.5-.87 1.05.74 2.03 1.67 2.64 2.83.04.1.06.23.06.34z"/>
    </symbol>
    <symbol id="icon-eye" viewBox="0 0 14 14">
      <path d="M13 7.5c-.74-1.15-1.75-2.14-2.98-2.76.84 1.38.55 3.3-.68 4.36-1.3 1.25-3.58 1.2-4.8-.13-1.14-1.06-1.36-2.9-.56-4.23C2.75 5.36 1.74 6.34 1 7.5c1.3 2.02 3.55 3.54 6 3.5 2.46.04 4.7-1.48 6-3.5zm-5.63-3c-.16-.7-1.16-.27-1.58-.04-.74.44-1.28 1.3-1.15 2.18.36.6.9-.07.77-.54.18-.73.9-1.27 1.66-1.23.17-.03.3-.2.3-.37zm6.63 3c-.06.68-.62 1.17-1 1.7-1.76 2.03-4.58 3.18-7.26 2.7-2.34-.42-4.48-1.93-5.65-4-.3-.63.23-1.2.57-1.7C2.4 3.98 5.32 2.63 8.14 3.1c2.4.37 4.58 1.9 5.77 4 .07.12.1.26.1.4z"/>
    </symbol>
    <symbol id="icon-github" viewBox="0 0 12 14">
      <path d="M12 7c.05 2.52-1.7 4.94-4.1 5.7-.46.1-.42-.43-.4-.73-.04-.62.07-1.26-.1-1.87-.08-.28-.52-.53 0-.5 1-.1 2.02-.7 2.27-1.74.26-.92.26-2.05-.46-2.78.18-.48.3-1.54-.32-1.6-.5.1-.96.34-1.38.62-.98-.27-2.03-.27-3 0-.5-.3-1.05-.67-1.66-.62-.37.55 0 1.3-.2 1.77-.67.87-.56 2.12-.13 3.07.45.9 1.48 1.25 2.4 1.33-.37.4-.32 1.1-1.05.96-.6.1-.96-.45-1.24-.87-.14-.28-1.07-.64-.94-.16.36.26.68.58.82 1 .24.73 1.1.83 1.75.76.57-.2.15.77.28 1.08-.28.72-1.2-.1-1.67-.3C.95 10.96-.2 8.7.03 6.5.17 3.93 2.2 1.64 4.7 1.13c2.07-.46 4.34.25 5.75 1.83 1 1.1 1.57 2.56 1.55 4.04z"/>
    </symbol>
    <symbol id="icon-pencil" viewBox="0 0 12 14">
      <path d="M2.84 12l.7-.7-1.83-1.85c-.23.24-.46.48-.7.7V11h1v1h.84zm4.08-7.25c-.1-.4-.46.03-.6.2C5 6.24 3.68 7.54 2.37 8.86c-.2.47.4.24.5 0l4-4 .03-.05.02-.07zm-.42-1.5L9.75 6.5 3.25 13H0V9.75l6.5-6.5zm5.34.75c0 .6-.58.93-.93 1.34-.2.22-.43.44-.65.66L7 2.75c.48-.47.95-.96 1.45-1.42.46-.34 1.1-.13 1.43.3.6.6 1.23 1.18 1.8 1.82.1.16.16.36.16.55z"/>
    </symbol>
    <symbol id="icon-phone" viewBox="0 0 11 14">
      <path d="M11 9.7c-.04.6-.2 1.3-.76 1.63-.8.6-1.9.86-2.86.5-1.13-.36-2.27-.78-3.2-1.54C2.88 9.23 1.66 8 .88 6.5.54 5.7.18 4.9.03 4.06c-.14-1 .3-2.02 1-2.7.44-.24 1.04-.46 1.53-.28.5.7.8 1.52 1.32 2.22.38.55-.36.96-.72 1.27-.5.27-.76.85-.3 1.3.74 1.38 1.88 2.53 3.27 3.26.45.47 1.02.2 1.3-.3.3-.35.72-1.1 1.27-.7.7.5 1.52.82 2.22 1.3.07.07.08.17.08.26z"/>
    </symbol>
    <symbol id="icon-plus" viewBox="0 0 11 14">
      <path d="M11 5.75c-.02.57.04 1.15-.03 1.72-.1.43-.57.58-.97.53H7c0 1.13.02 2.27 0 3.4-.1.44-.56.66-.97.6-.5-.02-1 .03-1.5-.03-.43-.1-.58-.57-.53-.97V8C2.87 8 1.73 8.02.6 8c-.44-.1-.66-.56-.6-.97.02-.5-.03-1 .03-1.5C.13 5.1.6 4.95 1 5h3c0-1.13-.02-2.27 0-3.4.1-.44.56-.66.97-.6.5.02 1-.03 1.5.03.43.1.58.57.53.97v3c1.13 0 2.27-.02 3.4 0 .34.08.6.4.6.75z"/>
    </symbol>
    <symbol id="icon-refresh" viewBox="0 0 12 14">
      <path d="M11.8 8.25c-.48 2.46-2.65 4.52-5.18 4.72-1.72.2-3.5-.42-4.76-1.63-.4.37-.74.8-1.17 1.12-.5.2-.8-.35-.7-.77V8.4c.1-.45.6-.4.94-.4H4.1c.55.13.46.8.06 1.04l-.88.88c1.3 1.27 3.52 1.44 5 .37.75-.5 1.24-1.3 1.54-2.12.13-.3.5-.14.74-.18.37 0 .73-.02 1.1.02.08.04.15.13.15.23zM12 2v3.6c-.1.45-.6.4-.94.4H7.9c-.55-.13-.46-.8-.06-1.04l.9-.9C7.3 2.7 4.88 2.67 3.4 3.95c-.64.5-1 1.23-1.28 1.96-.2.2-.54.07-.8.1-.35 0-.7.02-1.05-.02C-.1 5.4.6 4.6.8 4 1.82 2.15 3.92.93 6.06 1c1.5 0 2.98.63 4.06 1.66.4-.37.75-.8 1.18-1.12.32-.14.7.12.7.46z"/>
    </symbol>
    <symbol id="icon-reply" viewBox="0 0 14 14">
      <path d="M14 8.75c-.05 1.43-.65 2.76-1.23 4.04-.5.6-.6-.36-.46-.72.08-1.35 0-2.9-1.02-3.9C10.18 7.1 8.56 7.04 7.12 7H5v2.1c-.14.56-.82.44-1.06.04-1.3-1.3-2.58-2.57-3.86-3.87-.28-.43.2-.74.47-1.02C1.78 3.03 3 1.8 4.23.58c.48-.3.88.27.77.72V3c2.14 0 4.37-.1 6.35.84 1.33.6 2.3 1.87 2.52 3.32.1.52.13 1.06.13 1.6z"/>
    </symbol>
    <symbol id="icon-tags" viewBox="0 0 15 14">
      <path d="M3.5 3.5c.05-.8-1.03-1.32-1.63-.78-.66.48-.37 1.64.43 1.76.6.14 1.22-.36 1.2-.98zM11.84 8c0 .62-.6.95-.96 1.37-1.1 1.08-2.16 2.18-3.25 3.24-.45.4-1.15.25-1.5-.2C4.3 10.5 2.42 8.66.58 6.8c-.5-.6-.6-1.4-.57-2.16 0-.94-.02-1.9.02-2.84.1-.57.7-.88 1.25-.8C2.33 1 3.4.98 4.47 1c.77.1 1.4.57 1.92 1.14 1.73 1.74 3.48 3.47 5.2 5.23.16.17.24.4.24.63zm3 0c0 .62-.6.95-.96 1.37-1.1 1.08-2.16 2.18-3.25 3.24-.4.45-1.47.2-1.42-.3 1.22-1.23 2.45-2.44 3.66-3.67.4-.47.2-1.18-.25-1.53-1.82-1.82-3.64-3.65-5.47-5.46-.36-.4-1.3-.64-1.55-.64.74.03 1.5-.07 2.22.08.94.2 1.5 1 2.15 1.62 1.56 1.56 3.12 3.1 4.66 4.67.16.17.24.4.24.63z"/>
    </symbol>
    <symbol id="icon-trash-o" viewBox="0 0 11 14">
      <path d="M4 5.75v4.5c-.04.37-.48.22-.74.25-.37-.02-.23-.46-.26-.7V5.74c.04-.37.48-.22.74-.25.14 0 .27.1.26.25zm2 0v4.5c-.04.37-.48.22-.74.25-.37-.02-.23-.46-.26-.7V5.74c.04-.37.48-.22.74-.25.14 0 .27.1.26.25zm2 0v4.5c-.04.37-.48.22-.74.25-.37-.02-.23-.46-.26-.7V5.74c.04-.37.48-.22.74-.25.14 0 .27.1.26.25zm1 5.66V4H2v7.5c0 .37.3.58.64.5h6.1c.2-.13.25-.38.26-.6zM3.75 3h3.5l-.38-.9c-.2-.18-.5-.07-.75-.1H4.26c-.23.12-.24.44-.37.66L3.74 3zm7.25.25c-.03.25.1.58-.15.73-.28.04-.57 0-.85.02v7.57c-.04.72-.6 1.53-1.4 1.43H2.1c-.8-.13-1.2-1.02-1.12-1.76V4c-.28 0-.57.02-.85-.02C-.1 3.83.03 3.5 0 3.25c.04-.37.48-.22.74-.25h1.92c.23-.5.4-1.03.67-1.5.28-.43.8-.54 1.28-.5.77 0 1.54-.02 2.3 0 .52.1.87.52 1 1 .16.33.3.67.44 1h2.4c.15 0 .27.1.26.25z"/>
    </symbol>
    <symbol id="icon-twitter" viewBox="0 0 13 14">
      <path d="M12.66 3.2c-.27.6-1.13.92-1.26 1.52.04 2.54-1.37 5.07-3.56 6.36-2.3 1.3-5.3 1.24-7.5-.2 1.33.14 2.7-.22 3.75-1.06-1.07 0-2.07-.74-2.37-1.75.27.07 1.12.04 1.03-.07C1.66 7.75.8 6.66.84 5.52c.28.18.98.38 1.08.27C.87 5.07.54 3.53 1.2 2.45 2.46 4.02 4.4 5.02 6.4 5.1 6.15 4 6.7 2.8 7.7 2.3c.97-.54 2.3-.34 3.03.5.53 0 1.37-.57 1.58-.5-.2.54-.6 1-1.07 1.28.5-.05 1-.2 1.46-.4z"/>
    </symbol>
  </defs>
</svg>
